<svg xmlns="http://www.w3.org/2000/svg" xmlns:xlink="http://www.w3.org/1999/xlink" version="1.1" width="320" height="1838.3040346641305" viewbox="0 0 320 1838.304" xml:space="preserve">
<desc>Created with Fabric.js 6.7.1</desc>
<defs>
</defs>

<g transform="matrix(1 0 0 1 160 179.3999)" style="">
		<text xml:space="preserve" font-family="'Hanken Grotesk', 'Hanken Grotesk SemiBold', Hanken-Grotesk, Hanken-Grotesk-SemiBold, 'sans serif', sans-serif" font-size="40" font-style="normal" font-weight="600" style="stroke: none; stroke-width: 1; stroke-dasharray: none; stroke-linecap: butt; stroke-dashoffset: 0; stroke-linejoin: miter; stroke-miterlimit: 4; fill: rgb(24,58,40); fill-rule: nonzero; opacity: 1; text-decoration-thickness: 6.6667%; white-space: pre;"><tspan x="-93.96" y="-55.2344">FEATURES</tspan><tspan x="-108.6001" y="-10.0344">THAT MAKE</tspan><tspan x="-60.14" y="35.1656">EVERY</tspan><tspan x="-133.3" y="80.3656">MOMENT EPIC</tspan></text>
</g>
<g transform="matrix(0.75 0 0 0.75 160 321.8359)" style="">
		<text xml:space="preserve" font-family="'Hanken Grotesk', Hanken-Grotesk, 'sans serif', sans-serif" font-size="16" font-style="normal" font-weight="400" style="stroke: none; stroke-width: 1; stroke-dasharray: none; stroke-linecap: butt; stroke-dashoffset: 0; stroke-linejoin: miter; stroke-miterlimit: 4; fill: rgb(24,58,40); fill-rule: nonzero; opacity: 0.77; text-decoration-thickness: 5%; white-space: pre;"><tspan x="-180.048" y="-41.9818">Packed with cutting-edge technology, the VizoCam</tspan><tspan x="-170.512" y="-18.4778">X1 lets you capture life’s adventures in stunning</tspan><tspan x="-169.72" y="5.0262">detail. Every feature is designed to make filming</tspan><tspan x="-178.672" y="28.5302">effortless, professional, and fun — whether you’re</tspan><tspan x="-105.288" y="52.0342">on land, in water, or in the air.</tspan></text>
</g>
<g transform="matrix(0.5534 0 0 0.5534 160 569.4713)">
<g style="">
		<g transform="matrix(1 0 0 1 0 -0.5022)">
<rect style="stroke: none; stroke-width: 1; stroke-dasharray: none; stroke-linecap: butt; stroke-dashoffset: 0; stroke-linejoin: miter; stroke-miterlimit: 4; fill: rgb(24,58,40); fill-rule: nonzero; opacity: 0.03;" x="-252.5" y="-300" rx="24" ry="24" width="505" height="600"></rect>
</g>
		<g transform="matrix(1 0 0 1 -41.5108 -249.4303)" style="">
		<text xml:space="preserve" font-family="'Hanken Grotesk', 'Hanken Grotesk SemiBold', Hanken-Grotesk, Hanken-Grotesk-SemiBold, 'sans serif', sans-serif" font-size="32" font-style="normal" font-weight="600" style="stroke: none; stroke-width: 1; stroke-dasharray: none; stroke-linecap: butt; stroke-dashoffset: 0; stroke-linejoin: miter; stroke-miterlimit: 4; fill: rgb(24,58,40); fill-rule: nonzero; opacity: 1; text-decoration-thickness: 3.6891%; white-space: pre;"><tspan x="-178.2292" y="10.0525">5K Ultra HD Video</tspan></text>
</g>
		<g transform="matrix(1 0 0 1 -7.7576 -175.4713)" style="">
		<text xml:space="preserve" font-family="'Hanken Grotesk', Hanken-Grotesk, 'sans serif', sans-serif" font-size="20" font-style="normal" font-weight="400" style="stroke: none; stroke-width: 1; stroke-dasharray: none; stroke-linecap: butt; stroke-dashoffset: 0; stroke-linejoin: miter; stroke-miterlimit: 4; fill: rgb(24,58,40); fill-rule: nonzero; opacity: 0.77; text-decoration-thickness: 3.6891%; white-space: pre;"><tspan x="-211.9825" y="-21.9672">Shoot breathtaking video with 5K resolution —</tspan><tspan x="-211.9825" y="6.2828">capture every detail, every movement, every</tspan><tspan x="-211.9825" y="34.5328">memory.</tspan></text>
</g>
		<g transform="matrix(0.4981 0 0 0.4981 0 115.709)">
	<g><use href="#img-dedup-1" xlink:href="#img-dedup-1" x="-505" y="-372" width="1010" height="744" style="stroke: none; stroke-width: 0; stroke-dasharray: none; stroke-linecap: butt; stroke-dashoffset: 0; stroke-linejoin: miter; stroke-miterlimit: 4; fill: rgb(0,0,0); fill-rule: nonzero; opacity: 1;"></use></g>
</g>
</g>
</g>
<g transform="matrix(0.9459 0 0 0.9459 160 883.669)">
<g style="">
		<g transform="matrix(1 0 0 1 0 0)">
<rect style="stroke: none; stroke-width: 1; stroke-dasharray: none; stroke-linecap: butt; stroke-dashoffset: 0; stroke-linejoin: miter; stroke-miterlimit: 4; fill: rgb(24,58,40); fill-rule: nonzero; opacity: 1;" x="-147.5" y="-145" rx="24" ry="24" width="295" height="290"></rect>
</g>
		<g transform="matrix(1 0 0 1 0.94 -14.8227)" style="">
		<text xml:space="preserve" font-family="'Hanken Grotesk', 'Hanken Grotesk SemiBold', Hanken-Grotesk, Hanken-Grotesk-SemiBold, 'sans serif', sans-serif" font-size="60" font-style="normal" font-weight="600" style="stroke: none; stroke-width: 1; stroke-dasharray: none; stroke-linecap: butt; stroke-dashoffset: 0; stroke-linejoin: miter; stroke-miterlimit: 4; fill: rgb(245,230,211); fill-rule: nonzero; opacity: 1; text-decoration-thickness: 6.3063%; white-space: pre;"><tspan x="-57.6" y="18.8484">4.8+</tspan></text>
</g>
		<g transform="matrix(1 0 0 1 -3.06 33.424)" style="">
		<text xml:space="preserve" font-family="'Hanken Grotesk', Hanken-Grotesk, 'sans serif', sans-serif" font-size="16" font-style="normal" font-weight="400" style="stroke: none; stroke-width: 1; stroke-dasharray: none; stroke-linecap: butt; stroke-dashoffset: 0; stroke-linejoin: miter; stroke-miterlimit: 4; fill: rgb(245,230,211); fill-rule: nonzero; opacity: 0.73; text-decoration-thickness: 6.3063%; white-space: pre;"><tspan x="-52.736" y="5.0262">USERS RATING</tspan></text>
</g>
</g>
</g>
<g transform="matrix(0.6983 0 0 0.6983 160 1132.9001)">
<g style="">
		<g transform="matrix(1 0 0 1 0 -0.0001)">
<rect style="stroke: none; stroke-width: 1; stroke-dasharray: none; stroke-linecap: butt; stroke-dashoffset: 0; stroke-linejoin: miter; stroke-miterlimit: 4; fill: rgb(24,58,40); fill-rule: nonzero; opacity: 0.04;" x="-200" y="-145" rx="24" ry="24" width="400" height="290"></rect>
</g>
		<g transform="matrix(1 0 0 1 -27.413 -101.8921)">
<path style="stroke: none; stroke-width: 1; stroke-dasharray: none; stroke-linecap: butt; stroke-dashoffset: 0; stroke-linejoin: miter; stroke-miterlimit: 4; fill: rgb(24,58,40); fill-rule: nonzero; opacity: 1;" transform=" translate(-1012.587, -569.108)" d="M 873.704 575 L 873.704 558.272 L 876.488 558.272 L 876.488 565.112 L 884.024 565.112 L 884.024 558.272 L 886.808 558.272 L 886.808 575 L 884.024 575 L 884.024 567.68 L 876.488 567.68 L 876.488 575 L 873.704 575 Z M 890.227 575 L 890.227 558.272 L 895.027 558.272 C 897.779 558.272 899.915 559.016 901.435 560.504 C 902.955 561.976 903.715 564.064 903.715 566.768 C 903.715 569.424 902.963 571.464 901.459 572.888 C 899.971 574.296 897.819 575 895.003 575 L 890.227 575 Z M 893.011 572.456 L 894.739 572.456 C 896.035 572.456 897.147 572.28 898.075 571.928 C 899.003 571.56 899.707 570.952 900.187 570.104 C 900.667 569.256 900.907 568.112 900.907 566.672 C 900.907 565.232 900.667 564.088 900.187 563.24 C 899.723 562.376 899.043 561.76 898.147 561.392 C 897.267 561.008 896.211 560.816 894.979 560.816 L 893.011 560.816 L 893.011 572.456 Z M 906.446 575 L 906.446 558.272 L 911.798 558.272 C 913.126 558.272 914.206 558.472 915.038 558.872 C 915.87 559.256 916.478 559.808 916.862 560.528 C 917.262 561.248 917.462 562.096 917.462 563.072 C 917.462 564.56 917.03 565.72 916.166 566.552 C 915.318 567.368 914.102 567.84 912.518 567.968 C 912.198 567.968 911.854 567.968 911.486 567.968 C 911.118 567.968 910.79 567.968 910.502 567.968 L 909.23 567.968 L 909.23 575 L 906.446 575 Z M 915.614 575 L 911.366 567.656 L 914.222 567.32 L 918.83 575 L 915.614 575 Z M 909.23 565.52 L 911.51 565.52 C 912.118 565.52 912.654 565.448 913.118 565.304 C 913.598 565.16 913.974 564.912 914.246 564.56 C 914.534 564.208 914.678 563.72 914.678 563.096 C 914.678 562.472 914.534 561.992 914.246 561.656 C 913.974 561.32 913.598 561.088 913.118 560.96 C 912.638 560.816 912.102 560.744 911.51 560.744 L 909.23 560.744 L 909.23 565.52 Z M 927.259 575 L 927.259 558.272 L 932.611 558.272 C 934.467 558.272 935.875 558.672 936.835 559.472 C 937.795 560.272 938.275 561.472 938.275 563.072 C 938.275 564.672 937.787 565.896 936.811 566.744 C 935.851 567.576 934.451 567.992 932.611 567.992 L 930.019 567.992 L 930.019 575 L 927.259 575 Z M 930.019 565.52 L 932.323 565.52 C 933.315 565.52 934.091 565.336 934.651 564.968 C 935.211 564.6 935.491 563.984 935.491 563.12 C 935.491 562.272 935.219 561.664 934.675 561.296 C 934.147 560.928 933.363 560.744 932.323 560.744 L 930.019 560.744 L 930.019 565.52 Z M 940.521 575 L 940.521 558.272 L 943.185 558.272 L 943.185 565.784 L 942.705 565.904 C 942.913 565.216 943.217 564.656 943.617 564.224 C 944.033 563.792 944.505 563.472 945.033 563.264 C 945.561 563.056 946.121 562.952 946.713 562.952 C 948.041 562.952 949.073 563.336 949.809 564.104 C 950.561 564.856 950.937 565.936 950.937 567.344 L 950.937 575 L 948.273 575 L 948.273 568.328 C 948.273 567.272 948.081 566.496 947.697 566 C 947.313 565.504 946.721 565.256 945.921 565.256 C 945.025 565.256 944.345 565.576 943.881 566.216 C 943.417 566.856 943.185 567.864 943.185 569.24 L 943.185 575 L 940.521 575 Z M 959.255 575.216 C 958.135 575.216 957.127 574.952 956.231 574.424 C 955.335 573.896 954.631 573.168 954.119 572.24 C 953.623 571.312 953.375 570.256 953.375 569.072 C 953.375 567.888 953.623 566.832 954.119 565.904 C 954.631 564.976 955.327 564.256 956.207 563.744 C 957.103 563.216 958.119 562.952 959.255 562.952 C 960.407 562.952 961.415 563.216 962.279 563.744 C 963.159 564.256 963.855 564.976 964.367 565.904 C 964.879 566.832 965.135 567.888 965.135 569.072 C 965.135 570.256 964.879 571.312 964.367 572.24 C 963.871 573.168 963.175 573.896 962.279 574.424 C 961.399 574.952 960.391 575.216 959.255 575.216 Z M 959.279 572.864 C 959.935 572.864 960.503 572.712 960.983 572.408 C 961.463 572.104 961.831 571.664 962.087 571.088 C 962.343 570.512 962.471 569.84 962.471 569.072 C 962.471 568.288 962.343 567.616 962.087 567.056 C 961.831 566.48 961.463 566.04 960.983 565.736 C 960.503 565.432 959.935 565.28 959.279 565.28 C 958.591 565.28 958.007 565.44 957.527 565.76 C 957.047 566.064 956.679 566.496 956.423 567.056 C 956.167 567.616 956.039 568.288 956.039 569.072 C 956.039 569.84 956.167 570.512 956.423 571.088 C 956.679 571.664 957.047 572.104 957.527 572.408 C 958.007 572.712 958.591 572.864 959.279 572.864 Z M 971.864 575.216 C 971.272 575.216 970.712 575.104 970.184 574.88 C 969.672 574.64 969.264 574.264 968.96 573.752 C 968.656 573.224 968.504 572.536 968.504 571.688 L 968.504 560.288 L 971.192 558.8 L 971.192 570.944 C 971.192 571.616 971.288 572.136 971.48 572.504 C 971.688 572.856 972.056 573.032 972.584 573.032 C 972.744 573.032 972.928 573.016 973.136 572.984 C 973.36 572.936 973.592 572.88 973.832 572.816 L 973.832 574.88 C 973.512 574.992 973.184 575.072 972.848 575.12 C 972.528 575.184 972.2 575.216 971.864 575.216 Z M 966.248 565.232 L 966.248 563.168 L 973.832 563.168 L 973.832 565.232 L 966.248 565.232 Z M 981.31 575.216 C 980.19 575.216 979.182 574.952 978.286 574.424 C 977.39 573.896 976.686 573.168 976.174 572.24 C 975.678 571.312 975.43 570.256 975.43 569.072 C 975.43 567.888 975.678 566.832 976.174 565.904 C 976.686 564.976 977.382 564.256 978.262 563.744 C 979.158 563.216 980.174 562.952 981.31 562.952 C 982.462 562.952 983.47 563.216 984.334 563.744 C 985.214 564.256 985.91 564.976 986.422 565.904 C 986.934 566.832 987.19 567.888 987.19 569.072 C 987.19 570.256 986.934 571.312 986.422 572.24 C 985.926 573.168 985.23 573.896 984.334 574.424 C 983.454 574.952 982.446 575.216 981.31 575.216 Z M 981.334 572.864 C 981.99 572.864 982.558 572.712 983.038 572.408 C 983.518 572.104 983.886 571.664 984.142 571.088 C 984.398 570.512 984.526 569.84 984.526 569.072 C 984.526 568.288 984.398 567.616 984.142 567.056 C 983.886 566.48 983.518 566.04 983.038 565.736 C 982.558 565.432 981.99 565.28 981.334 565.28 C 980.646 565.28 980.062 565.44 979.582 565.76 C 979.102 566.064 978.734 566.496 978.478 567.056 C 978.222 567.616 978.094 568.288 978.094 569.072 C 978.094 569.84 978.222 570.512 978.478 571.088 C 978.734 571.664 979.102 572.104 979.582 572.408 C 980.062 572.712 980.646 572.864 981.334 572.864 Z M 993.795 575.216 C 992.947 575.216 992.195 575.096 991.539 574.856 C 990.883 574.6 990.331 574.28 989.883 573.896 C 989.435 573.512 989.067 573.128 988.779 572.744 L 990.603 571.16 C 990.907 571.656 991.323 572.096 991.851 572.48 C 992.395 572.864 993.051 573.056 993.819 573.056 C 994.459 573.056 994.963 572.92 995.331 572.648 C 995.715 572.376 995.907 572.04 995.907 571.64 C 995.907 571.288 995.787 571.016 995.547 570.824 C 995.307 570.616 994.995 570.44 994.611 570.296 C 994.227 570.152 993.803 570.024 993.339 569.912 C 992.891 569.8 992.435 569.664 991.971 569.504 C 991.507 569.328 991.075 569.112 990.675 568.856 C 990.291 568.6 989.979 568.272 989.739 567.872 C 989.499 567.472 989.379 566.976 989.379 566.384 C 989.379 565.344 989.779 564.512 990.579 563.888 C 991.379 563.264 992.427 562.952 993.723 562.952 C 994.651 562.952 995.499 563.136 996.267 563.504 C 997.035 563.872 997.635 564.424 998.067 565.16 L 996.411 566.432 C 996.091 565.952 995.691 565.592 995.211 565.352 C 994.731 565.112 994.211 564.992 993.651 564.992 C 993.139 564.992 992.707 565.096 992.355 565.304 C 992.019 565.512 991.851 565.784 991.851 566.12 C 991.851 566.376 991.931 566.584 992.091 566.744 C 992.251 566.904 992.499 567.048 992.835 567.176 C 993.171 567.304 993.595 567.432 994.107 567.56 C 994.587 567.672 995.083 567.808 995.595 567.968 C 996.107 568.128 996.579 568.344 997.011 568.616 C 997.459 568.872 997.819 569.224 998.091 569.672 C 998.379 570.104 998.523 570.664 998.523 571.352 C 998.523 572.12 998.323 572.8 997.923 573.392 C 997.539 573.968 996.987 574.416 996.267 574.736 C 995.563 575.056 994.739 575.216 993.795 575.216 Z M 1012.38 575.264 C 1011.34 575.264 1010.41 575.104 1009.57 574.784 C 1008.74 574.464 1008.09 573.992 1007.61 573.368 C 1007.13 572.728 1006.89 571.952 1006.89 571.04 C 1006.89 570.304 1007.04 569.656 1007.34 569.096 C 1007.65 568.536 1008.04 568.048 1008.52 567.632 C 1009 567.2 1009.53 566.808 1010.1 566.456 C 1010.69 566.104 1011.28 565.768 1011.85 565.448 C 1012.49 565.08 1013.07 564.72 1013.58 564.368 C 1014.09 564 1014.5 563.616 1014.81 563.216 C 1015.11 562.8 1015.26 562.336 1015.26 561.824 C 1015.26 561.392 1015.12 561.016 1014.83 560.696 C 1014.56 560.36 1014.11 560.192 1013.49 560.192 C 1012.89 560.192 1012.41 560.36 1012.02 560.696 C 1011.64 561.032 1011.45 561.496 1011.45 562.088 C 1011.45 562.456 1011.53 562.816 1011.69 563.168 C 1011.86 563.52 1012.07 563.856 1012.31 564.176 C 1012.57 564.48 1012.8 564.752 1013.01 564.992 L 1010.89 566.096 C 1010.62 565.776 1010.33 565.424 1010.01 565.04 C 1009.69 564.64 1009.41 564.192 1009.19 563.696 C 1008.98 563.184 1008.88 562.632 1008.88 562.04 C 1008.88 561.208 1009.09 560.504 1009.5 559.928 C 1009.92 559.336 1010.47 558.88 1011.16 558.56 C 1011.86 558.24 1012.63 558.08 1013.46 558.08 C 1014.76 558.08 1015.79 558.416 1016.56 559.088 C 1017.34 559.744 1017.73 560.648 1017.73 561.8 C 1017.73 562.696 1017.5 563.48 1017.04 564.152 C 1016.57 564.808 1015.98 565.392 1015.26 565.904 C 1014.56 566.416 1013.83 566.896 1013.08 567.344 C 1012.47 567.712 1011.9 568.072 1011.37 568.424 C 1010.86 568.76 1010.44 569.128 1010.1 569.528 C 1009.78 569.912 1009.62 570.376 1009.62 570.92 C 1009.62 571.56 1009.87 572.064 1010.37 572.432 C 1010.88 572.8 1011.55 572.984 1012.38 572.984 C 1014.03 572.984 1015.37 572.384 1016.41 571.184 C 1017.47 569.984 1018.23 568.304 1018.69 566.144 L 1021.05 566.504 C 1020.73 568.456 1020.16 570.08 1019.34 571.376 C 1018.53 572.672 1017.53 573.648 1016.34 574.304 C 1015.16 574.944 1013.84 575.264 1012.38 575.264 Z M 1019.53 575.864 L 1012.14 567.344 L 1014.25 566.048 L 1021.43 574.208 L 1019.53 575.864 Z M 1030.38 575 L 1030.38 558.272 L 1033.26 558.272 L 1041.33 571.376 L 1040.63 571.376 L 1040.63 558.272 L 1043.42 558.272 L 1043.42 575 L 1040.49 575 L 1032.5 561.872 L 1033.17 561.872 L 1033.17 575 L 1030.38 575 Z M 1046.65 575 L 1046.65 563.168 L 1049.31 563.168 L 1049.31 575 L 1046.65 575 Z M 1046.53 561.224 L 1046.53 558.272 L 1049.43 558.272 L 1049.43 561.224 L 1046.53 561.224 Z M 1057.33 580.136 C 1055.59 580.136 1054.21 579.816 1053.2 579.176 C 1052.2 578.552 1051.69 577.696 1051.69 576.608 C 1051.69 576.512 1051.69 576.4 1051.69 576.272 C 1051.71 576.144 1051.73 576.016 1051.76 575.888 L 1054.98 573.8 L 1055.7 574.496 L 1054.14 576.44 C 1054.12 576.488 1054.12 576.528 1054.12 576.56 C 1054.12 576.608 1054.12 576.656 1054.12 576.704 C 1054.12 577.2 1054.41 577.576 1055 577.832 C 1055.61 578.104 1056.39 578.24 1057.33 578.24 C 1058.13 578.24 1058.77 578.128 1059.25 577.904 C 1059.73 577.696 1059.97 577.376 1059.97 576.944 C 1059.97 576.704 1059.9 576.504 1059.76 576.344 C 1059.61 576.2 1059.4 576.08 1059.11 575.984 C 1058.82 575.888 1058.46 575.8 1058.03 575.72 C 1057.61 575.656 1057.12 575.592 1056.54 575.528 C 1055.82 575.416 1055.11 575.256 1054.4 575.048 C 1053.72 574.84 1053.14 574.528 1052.68 574.112 C 1052.23 573.696 1052 573.144 1052 572.456 C 1052 571.848 1052.21 571.296 1052.63 570.8 C 1053.04 570.288 1053.6 569.872 1054.28 569.552 L 1055.65 570.608 C 1055.2 570.704 1054.87 570.872 1054.64 571.112 C 1054.42 571.336 1054.31 571.608 1054.31 571.928 C 1054.31 572.2 1054.41 572.424 1054.62 572.6 C 1054.83 572.76 1055.12 572.888 1055.51 572.984 C 1055.91 573.064 1056.38 573.144 1056.92 573.224 C 1057.74 573.32 1058.49 573.432 1059.18 573.56 C 1059.87 573.688 1060.47 573.872 1060.98 574.112 C 1061.49 574.336 1061.88 574.648 1062.16 575.048 C 1062.44 575.448 1062.59 575.968 1062.59 576.608 C 1062.59 577.744 1062.12 578.616 1061.2 579.224 C 1060.28 579.832 1059 580.136 1057.33 580.136 Z M 1057.07 571.568 C 1056.11 571.568 1055.26 571.384 1054.52 571.016 C 1053.79 570.648 1053.21 570.144 1052.8 569.504 C 1052.4 568.848 1052.2 568.112 1052.2 567.296 C 1052.2 566.416 1052.41 565.656 1052.84 565.016 C 1053.28 564.36 1053.85 563.856 1054.57 563.504 C 1055.31 563.136 1056.11 562.952 1056.97 562.952 C 1057.84 562.952 1058.63 563.136 1059.35 563.504 C 1060.07 563.856 1060.64 564.368 1061.08 565.04 C 1061.52 565.696 1061.75 566.48 1061.75 567.392 C 1061.75 568.224 1061.55 568.96 1061.15 569.6 C 1060.76 570.224 1060.22 570.712 1059.52 571.064 C 1058.81 571.4 1058 571.568 1057.07 571.568 Z M 1057.02 569.432 C 1057.71 569.432 1058.23 569.224 1058.58 568.808 C 1058.93 568.376 1059.11 567.864 1059.11 567.272 C 1059.11 566.632 1058.92 566.12 1058.53 565.736 C 1058.15 565.336 1057.64 565.136 1057.02 565.136 C 1056.36 565.136 1055.84 565.336 1055.44 565.736 C 1055.05 566.12 1054.86 566.624 1054.86 567.248 C 1054.86 567.856 1055.04 568.376 1055.41 568.808 C 1055.78 569.224 1056.32 569.432 1057.02 569.432 Z M 1060.98 565.568 L 1059.04 564.32 L 1061.7 562.16 L 1063.07 563.816 L 1060.98 565.568 Z M 1064.88 575 L 1064.88 558.272 L 1067.54 558.272 L 1067.54 565.784 L 1067.06 565.904 C 1067.27 565.216 1067.58 564.656 1067.98 564.224 C 1068.39 563.792 1068.86 563.472 1069.39 563.264 C 1069.92 563.056 1070.48 562.952 1071.07 562.952 C 1072.4 562.952 1073.43 563.336 1074.17 564.104 C 1074.92 564.856 1075.3 565.936 1075.3 567.344 L 1075.3 575 L 1072.63 575 L 1072.63 568.328 C 1072.63 567.272 1072.44 566.496 1072.06 566 C 1071.67 565.504 1071.08 565.256 1070.28 565.256 C 1069.38 565.256 1068.7 565.576 1068.24 566.216 C 1067.78 566.856 1067.54 567.864 1067.54 569.24 L 1067.54 575 L 1064.88 575 Z M 1082.4 575.216 C 1081.8 575.216 1081.24 575.104 1080.72 574.88 C 1080.2 574.64 1079.8 574.264 1079.49 573.752 C 1079.19 573.224 1079.04 572.536 1079.04 571.688 L 1079.04 560.288 L 1081.72 558.8 L 1081.72 570.944 C 1081.72 571.616 1081.82 572.136 1082.01 572.504 C 1082.22 572.856 1082.59 573.032 1083.12 573.032 C 1083.28 573.032 1083.46 573.016 1083.67 572.984 C 1083.89 572.936 1084.12 572.88 1084.36 572.816 L 1084.36 574.88 C 1084.04 574.992 1083.72 575.072 1083.38 575.12 C 1083.06 575.184 1082.73 575.216 1082.4 575.216 Z M 1076.78 565.232 L 1076.78 563.168 L 1084.36 563.168 L 1084.36 565.232 L 1076.78 565.232 Z M 1093.13 575 L 1093.13 558.272 L 1097.21 558.272 L 1101.89 570.776 L 1101.38 570.776 L 1106.09 558.272 L 1110.14 558.272 L 1110.14 575 L 1107.36 575 L 1107.36 561.512 L 1107.6 561.56 L 1102.99 573.536 L 1100.28 573.536 L 1095.65 561.56 L 1095.91 561.512 L 1095.91 575 L 1093.13 575 Z M 1118.72 575.216 C 1117.6 575.216 1116.6 574.952 1115.7 574.424 C 1114.8 573.896 1114.1 573.168 1113.59 572.24 C 1113.09 571.312 1112.84 570.256 1112.84 569.072 C 1112.84 567.888 1113.09 566.832 1113.59 565.904 C 1114.1 564.976 1114.8 564.256 1115.68 563.744 C 1116.57 563.216 1117.59 562.952 1118.72 562.952 C 1119.88 562.952 1120.88 563.216 1121.75 563.744 C 1122.63 564.256 1123.32 564.976 1123.84 565.904 C 1124.35 566.832 1124.6 567.888 1124.6 569.072 C 1124.6 570.256 1124.35 571.312 1123.84 572.24 C 1123.34 573.168 1122.64 573.896 1121.75 574.424 C 1120.87 574.952 1119.86 575.216 1118.72 575.216 Z M 1118.75 572.864 C 1119.4 572.864 1119.97 572.712 1120.45 572.408 C 1120.93 572.104 1121.3 571.664 1121.56 571.088 C 1121.81 570.512 1121.94 569.84 1121.94 569.072 C 1121.94 568.288 1121.81 567.616 1121.56 567.056 C 1121.3 566.48 1120.93 566.04 1120.45 565.736 C 1119.97 565.432 1119.4 565.28 1118.75 565.28 C 1118.06 565.28 1117.48 565.44 1117 565.76 C 1116.52 566.064 1116.15 566.496 1115.89 567.056 C 1115.64 567.616 1115.51 568.288 1115.51 569.072 C 1115.51 569.84 1115.64 570.512 1115.89 571.088 C 1116.15 571.664 1116.52 572.104 1117 572.408 C 1117.48 572.712 1118.06 572.864 1118.75 572.864 Z M 1131.79 575.216 C 1130.73 575.216 1129.81 574.952 1129.03 574.424 C 1128.26 573.88 1127.67 573.144 1127.25 572.216 C 1126.83 571.288 1126.63 570.24 1126.63 569.072 C 1126.63 567.792 1126.85 566.696 1127.3 565.784 C 1127.76 564.872 1128.39 564.176 1129.17 563.696 C 1129.95 563.2 1130.83 562.952 1131.79 562.952 C 1132.46 562.952 1133.07 563.088 1133.63 563.36 C 1134.21 563.632 1134.69 564.032 1135.07 564.56 C 1135.47 565.072 1135.75 565.704 1135.91 566.456 L 1135.29 566.48 L 1135.29 558.272 L 1137.95 558.272 L 1137.95 575 L 1135.29 575 L 1135.29 571.712 L 1136.01 571.544 C 1135.8 572.408 1135.48 573.112 1135.05 573.656 C 1134.63 574.184 1134.15 574.576 1133.59 574.832 C 1133.03 575.088 1132.43 575.216 1131.79 575.216 Z M 1132.43 572.768 C 1133.06 572.768 1133.6 572.616 1134.07 572.312 C 1134.53 572.008 1134.89 571.576 1135.15 571.016 C 1135.4 570.456 1135.53 569.808 1135.53 569.072 C 1135.53 568.336 1135.4 567.696 1135.15 567.152 C 1134.89 566.592 1134.53 566.16 1134.07 565.856 C 1133.6 565.536 1133.06 565.376 1132.43 565.376 C 1131.81 565.376 1131.26 565.528 1130.78 565.832 C 1130.31 566.136 1129.95 566.568 1129.67 567.128 C 1129.42 567.688 1129.29 568.336 1129.29 569.072 C 1129.29 569.808 1129.42 570.456 1129.67 571.016 C 1129.95 571.576 1130.31 572.008 1130.78 572.312 C 1131.26 572.616 1131.81 572.768 1132.43 572.768 Z M 1146.26 575.216 C 1145.27 575.216 1144.4 575.056 1143.67 574.736 C 1142.95 574.416 1142.36 573.968 1141.89 573.392 C 1141.43 572.816 1141.08 572.168 1140.86 571.448 C 1140.64 570.712 1140.52 569.952 1140.52 569.168 C 1140.52 568.384 1140.63 567.624 1140.84 566.888 C 1141.06 566.136 1141.4 565.464 1141.84 564.872 C 1142.29 564.28 1142.87 563.816 1143.57 563.48 C 1144.28 563.128 1145.11 562.952 1146.07 562.952 C 1146.98 562.952 1147.77 563.112 1148.44 563.432 C 1149.13 563.736 1149.7 564.168 1150.15 564.728 C 1150.6 565.272 1150.92 565.896 1151.13 566.6 C 1151.36 567.304 1151.47 568.056 1151.47 568.856 C 1151.47 568.968 1151.46 569.128 1151.44 569.336 C 1151.44 569.544 1151.43 569.752 1151.4 569.96 L 1143.19 569.96 C 1143.25 570.904 1143.57 571.624 1144.15 572.12 C 1144.72 572.616 1145.46 572.864 1146.36 572.864 C 1147.01 572.864 1147.61 572.76 1148.16 572.552 C 1148.7 572.344 1149.2 572.016 1149.64 571.568 L 1151.11 573.344 C 1150.61 573.792 1150.12 574.152 1149.62 574.424 C 1149.12 574.696 1148.6 574.896 1148.06 575.024 C 1147.53 575.152 1146.93 575.216 1146.26 575.216 Z M 1148.85 568.616 C 1148.88 568.488 1148.9 568.36 1148.9 568.232 C 1148.92 568.104 1148.92 567.976 1148.92 567.848 C 1148.92 567.496 1148.86 567.16 1148.73 566.84 C 1148.62 566.52 1148.44 566.24 1148.2 566 C 1147.96 565.744 1147.67 565.544 1147.32 565.4 C 1146.96 565.24 1146.56 565.16 1146.12 565.16 C 1145.49 565.16 1144.96 565.296 1144.53 565.568 C 1144.12 565.84 1143.79 566.192 1143.55 566.624 C 1143.32 567.04 1143.19 567.496 1143.14 567.992 L 1149.72 567.992 L 1148.85 568.616 Z" stroke-linecap="round"></path>
</g>
		<g transform="matrix(1 0 0 1 -31.7 -53.8721)">
<path style="stroke: none; stroke-width: 1; stroke-dasharray: none; stroke-linecap: butt; stroke-dashoffset: 0; stroke-linejoin: miter; stroke-miterlimit: 4; fill: rgb(24,58,40); fill-rule: nonzero; opacity: 0.7;" transform=" translate(-1008.3, -617.128)" d="M 875.984 610 L 875.984 600.112 L 872.24 600.112 L 872.24 598.848 L 881.136 598.848 L 881.136 600.112 L 877.408 600.112 L 877.408 610 L 875.984 610 Z M 886.211 610 L 886.115 608.416 L 886.115 605.056 C 886.115 604.448 885.944 603.979 885.603 603.648 C 885.272 603.317 884.776 603.152 884.115 603.152 C 883.688 603.152 883.288 603.243 882.915 603.424 C 882.542 603.595 882.179 603.888 881.827 604.304 L 880.851 603.472 C 881.288 602.96 881.79 602.587 882.355 602.352 C 882.92 602.107 883.539 601.984 884.211 601.984 C 885.246 601.984 886.046 602.251 886.611 602.784 C 887.176 603.317 887.459 604.075 887.459 605.056 L 887.459 610 L 886.211 610 Z M 883.603 610.128 C 883.006 610.128 882.483 610.027 882.035 609.824 C 881.598 609.611 881.256 609.317 881.011 608.944 C 880.776 608.571 880.659 608.139 880.659 607.648 C 880.659 607.211 880.744 606.843 880.915 606.544 C 881.096 606.235 881.326 605.995 881.603 605.824 C 881.88 605.643 882.195 605.52 882.547 605.456 C 882.91 605.381 883.288 605.344 883.683 605.344 L 886.243 605.344 L 886.243 606.368 L 883.875 606.368 C 883.64 606.368 883.395 606.389 883.139 606.432 C 882.883 606.475 882.659 606.565 882.467 606.704 C 882.328 606.811 882.216 606.944 882.131 607.104 C 882.056 607.264 882.019 607.451 882.019 607.664 C 882.019 608.08 882.174 608.411 882.483 608.656 C 882.792 608.901 883.208 609.024 883.731 609.024 C 884.168 609.024 884.563 608.923 884.915 608.72 C 885.278 608.517 885.566 608.24 885.779 607.888 C 886.003 607.525 886.115 607.12 886.115 606.672 L 886.675 607.248 C 886.611 607.813 886.44 608.315 886.163 608.752 C 885.886 609.189 885.528 609.531 885.091 609.776 C 884.664 610.011 884.168 610.128 883.603 610.128 Z M 895.044 610 L 892.42 605.936 L 890.868 607.6 L 890.868 605.856 L 894.5 602.112 L 896.244 602.112 L 893.412 605.024 L 896.66 610 L 895.044 610 Z M 889.668 610 L 889.668 598.848 L 891.028 598.848 L 891.028 610 L 889.668 610 Z M 901.089 610.128 C 900.471 610.128 899.927 610.027 899.457 609.824 C 898.999 609.611 898.615 609.317 898.305 608.944 C 898.007 608.571 897.777 608.144 897.617 607.664 C 897.468 607.173 897.393 606.656 897.393 606.112 C 897.393 605.568 897.468 605.051 897.617 604.56 C 897.767 604.059 897.985 603.616 898.273 603.232 C 898.572 602.848 898.945 602.544 899.393 602.32 C 899.841 602.096 900.364 601.984 900.961 601.984 C 901.569 601.984 902.092 602.091 902.529 602.304 C 902.977 602.507 903.34 602.789 903.617 603.152 C 903.905 603.515 904.119 603.92 904.257 604.368 C 904.396 604.816 904.465 605.28 904.465 605.76 C 904.465 605.803 904.46 605.904 904.449 606.064 C 904.449 606.213 904.439 606.347 904.417 606.464 L 898.737 606.464 C 898.769 607.232 898.993 607.829 899.409 608.256 C 899.825 608.683 900.391 608.896 901.105 608.896 C 901.564 608.896 901.964 608.821 902.305 608.672 C 902.647 608.523 902.967 608.283 903.265 607.952 L 904.209 608.784 C 903.921 609.093 903.617 609.349 903.297 609.552 C 902.977 609.744 902.636 609.888 902.273 609.984 C 901.921 610.08 901.527 610.128 901.089 610.128 Z M 903.121 605.776 C 903.143 605.691 903.153 605.605 903.153 605.52 C 903.164 605.435 903.169 605.349 903.169 605.264 C 903.169 605.008 903.121 604.752 903.025 604.496 C 902.94 604.24 902.807 604.011 902.625 603.808 C 902.455 603.595 902.231 603.429 901.953 603.312 C 901.687 603.184 901.367 603.12 900.993 603.12 C 900.535 603.12 900.14 603.227 899.809 603.44 C 899.479 603.653 899.223 603.936 899.041 604.288 C 898.86 604.64 898.753 605.029 898.721 605.456 L 903.569 605.456 L 903.121 605.776 Z M 913.006 610 L 909.774 602.112 L 911.262 602.112 L 913.566 608.256 L 915.886 602.112 L 917.358 602.112 L 914.142 610 L 913.006 610 Z M 918.886 610 L 918.886 602.112 L 920.23 602.112 L 920.23 610 L 918.886 610 Z M 918.758 600.688 L 918.758 598.848 L 920.358 598.848 L 920.358 600.688 L 918.758 600.688 Z M 924.959 610 L 921.727 602.112 L 923.215 602.112 L 925.519 608.256 L 927.839 602.112 L 929.311 602.112 L 926.095 610 L 924.959 610 Z M 930.839 610 L 930.839 602.112 L 932.183 602.112 L 932.183 610 L 930.839 610 Z M 930.711 600.688 L 930.711 598.848 L 932.311 598.848 L 932.311 600.688 L 930.711 600.688 Z M 937.681 610.128 C 936.966 610.128 936.337 609.952 935.793 609.6 C 935.259 609.237 934.843 608.747 934.545 608.128 C 934.246 607.509 934.097 606.816 934.097 606.048 C 934.097 605.216 934.257 604.496 934.577 603.888 C 934.897 603.28 935.329 602.811 935.873 602.48 C 936.417 602.149 937.019 601.984 937.681 601.984 C 938.182 601.984 938.63 602.085 939.025 602.288 C 939.419 602.48 939.75 602.747 940.017 603.088 C 940.294 603.419 940.486 603.792 940.593 604.208 L 940.209 604.464 L 940.209 598.848 L 941.553 598.848 L 941.553 610 L 940.209 610 L 940.209 607.648 L 940.657 607.792 C 940.518 608.251 940.31 608.656 940.033 609.008 C 939.755 609.36 939.419 609.637 939.025 609.84 C 938.63 610.032 938.182 610.128 937.681 610.128 Z M 937.905 608.88 C 938.385 608.88 938.806 608.763 939.169 608.528 C 939.531 608.283 939.814 607.947 940.017 607.52 C 940.219 607.093 940.321 606.603 940.321 606.048 C 940.321 605.493 940.219 605.003 940.017 604.576 C 939.814 604.149 939.531 603.819 939.169 603.584 C 938.806 603.339 938.385 603.216 937.905 603.216 C 937.425 603.216 936.998 603.339 936.625 603.584 C 936.262 603.819 935.974 604.149 935.761 604.576 C 935.558 605.003 935.457 605.493 935.457 606.048 C 935.457 606.603 935.558 607.093 935.761 607.52 C 935.974 607.947 936.262 608.283 936.625 608.528 C 936.998 608.763 937.425 608.88 937.905 608.88 Z M 943.087 612.464 L 944.575 607.648 L 946.079 607.648 L 943.999 612.464 L 943.087 612.464 Z M 951.855 610 L 951.855 598.848 L 953.215 598.848 L 953.215 603.792 L 952.879 603.92 C 953.028 603.515 953.236 603.168 953.503 602.88 C 953.77 602.592 954.084 602.373 954.447 602.224 C 954.81 602.064 955.204 601.984 955.631 601.984 C 956.495 601.984 957.172 602.24 957.663 602.752 C 958.154 603.253 958.399 604 958.399 604.992 L 958.399 610 L 957.039 610 L 957.039 605.488 C 957.039 604.688 956.89 604.101 956.591 603.728 C 956.303 603.344 955.86 603.152 955.263 603.152 C 954.612 603.152 954.106 603.387 953.743 603.856 C 953.391 604.315 953.215 605.051 953.215 606.064 L 953.215 610 L 951.855 610 Z M 960.589 610 L 960.589 602.112 L 961.933 602.112 L 961.933 610 L 960.589 610 Z M 960.461 600.688 L 960.461 598.848 L 962.061 598.848 L 962.061 600.688 L 960.461 600.688 Z M 967.399 613.408 C 966.268 613.408 965.372 613.2 964.711 612.784 C 964.049 612.368 963.719 611.792 963.719 611.056 C 963.719 611.003 963.719 610.933 963.719 610.848 C 963.729 610.763 963.745 610.683 963.767 610.608 L 965.735 609.184 L 966.199 609.504 L 965.079 610.896 C 965.068 610.939 965.062 610.976 965.062 611.008 C 965.062 611.04 965.062 611.072 965.062 611.104 C 965.062 611.531 965.287 611.845 965.735 612.048 C 966.183 612.261 966.737 612.368 967.399 612.368 C 967.985 612.368 968.471 612.283 968.855 612.112 C 969.239 611.952 969.431 611.685 969.431 611.312 C 969.431 611.099 969.367 610.923 969.239 610.784 C 969.121 610.656 968.945 610.555 968.711 610.48 C 968.487 610.405 968.22 610.341 967.911 610.288 C 967.601 610.235 967.255 610.181 966.871 610.128 C 966.391 610.053 965.921 609.947 965.463 609.808 C 965.015 609.669 964.641 609.467 964.343 609.2 C 964.055 608.933 963.911 608.581 963.911 608.144 C 963.911 607.771 964.039 607.429 964.295 607.12 C 964.561 606.811 964.908 606.555 965.335 606.352 L 966.199 606.912 C 965.836 606.997 965.58 607.131 965.431 607.312 C 965.281 607.483 965.207 607.691 965.207 607.936 C 965.207 608.139 965.276 608.304 965.414 608.432 C 965.564 608.56 965.772 608.661 966.039 608.736 C 966.316 608.8 966.647 608.859 967.031 608.912 C 967.543 608.987 968.023 609.067 968.471 609.152 C 968.919 609.237 969.313 609.36 969.655 609.52 C 970.007 609.669 970.279 609.872 970.471 610.128 C 970.663 610.395 970.759 610.736 970.759 611.152 C 970.759 611.877 970.46 612.432 969.863 612.816 C 969.265 613.211 968.444 613.408 967.399 613.408 Z M 967.207 607.536 C 966.599 607.536 966.06 607.419 965.591 607.184 C 965.121 606.949 964.753 606.624 964.487 606.208 C 964.231 605.792 964.103 605.317 964.103 604.784 C 964.103 604.229 964.236 603.744 964.503 603.328 C 964.78 602.901 965.148 602.571 965.607 602.336 C 966.076 602.101 966.593 601.984 967.159 601.984 C 967.713 601.984 968.22 602.101 968.679 602.336 C 969.137 602.571 969.505 602.901 969.783 603.328 C 970.06 603.755 970.199 604.256 970.199 604.832 C 970.199 605.376 970.071 605.851 969.815 606.256 C 969.559 606.661 969.207 606.976 968.759 607.2 C 968.311 607.424 967.793 607.536 967.207 607.536 Z M 967.174 606.432 C 967.708 606.432 968.119 606.272 968.407 605.952 C 968.705 605.621 968.855 605.221 968.855 604.752 C 968.855 604.251 968.7 603.845 968.391 603.536 C 968.081 603.227 967.676 603.072 967.174 603.072 C 966.663 603.072 966.247 603.232 965.927 603.552 C 965.607 603.861 965.447 604.256 965.447 604.736 C 965.447 605.216 965.601 605.621 965.911 605.952 C 966.22 606.272 966.641 606.432 967.174 606.432 Z M 969.687 603.584 L 968.711 602.928 L 970.375 601.552 L 971.062 602.4 L 969.687 603.584 Z M 972.433 610 L 972.433 598.848 L 973.793 598.848 L 973.793 603.792 L 973.457 603.92 C 973.607 603.515 973.815 603.168 974.081 602.88 C 974.348 602.592 974.663 602.373 975.025 602.224 C 975.388 602.064 975.783 601.984 976.209 601.984 C 977.073 601.984 977.751 602.24 978.241 602.752 C 978.732 603.253 978.977 604 978.977 604.992 L 978.977 610 L 977.617 610 L 977.617 605.488 C 977.617 604.688 977.468 604.101 977.169 603.728 C 976.881 603.344 976.439 603.152 975.841 603.152 C 975.191 603.152 974.684 603.387 974.321 603.856 C 973.969 604.315 973.793 605.051 973.793 606.064 L 973.793 610 L 972.433 610 Z M 980.671 605.648 L 980.671 604.64 L 984.639 604.64 L 984.639 605.648 L 980.671 605.648 Z M 989.698 610.128 C 989.111 610.128 988.588 610.021 988.13 609.808 C 987.682 609.595 987.303 609.301 986.994 608.928 C 986.684 608.544 986.45 608.107 986.29 607.616 C 986.13 607.125 986.05 606.603 986.05 606.048 C 986.05 605.504 986.13 604.987 986.29 604.496 C 986.45 604.005 986.684 603.573 986.994 603.2 C 987.303 602.816 987.682 602.517 988.13 602.304 C 988.588 602.091 989.111 601.984 989.698 601.984 C 990.444 601.984 991.095 602.165 991.65 602.528 C 992.215 602.891 992.631 603.445 992.898 604.192 L 991.698 604.656 C 991.548 604.208 991.308 603.845 990.978 603.568 C 990.647 603.291 990.22 603.152 989.698 603.152 C 989.175 603.152 988.743 603.291 988.402 603.568 C 988.06 603.845 987.804 604.203 987.634 604.64 C 987.474 605.077 987.394 605.547 987.394 606.048 C 987.394 606.549 987.474 607.024 987.634 607.472 C 987.804 607.909 988.06 608.267 988.402 608.544 C 988.743 608.811 989.175 608.944 989.698 608.944 C 990.22 608.944 990.647 608.811 990.978 608.544 C 991.308 608.267 991.548 607.899 991.698 607.44 L 992.898 607.904 C 992.631 608.651 992.215 609.211 991.65 609.584 C 991.095 609.947 990.444 610.128 989.698 610.128 Z M 998.171 610.128 C 997.435 610.128 996.774 609.957 996.187 609.616 C 995.611 609.264 995.158 608.779 994.827 608.16 C 994.496 607.541 994.331 606.837 994.331 606.048 C 994.331 605.259 994.491 604.56 994.811 603.952 C 995.142 603.333 995.595 602.853 996.171 602.512 C 996.758 602.16 997.424 601.984 998.171 601.984 C 998.918 601.984 999.574 602.16 1000.14 602.512 C 1000.71 602.853 1001.17 603.333 1001.5 603.952 C 1001.83 604.56 1001.99 605.259 1001.99 606.048 C 1001.99 606.837 1001.83 607.541 1001.5 608.16 C 1001.17 608.768 1000.71 609.248 1000.14 609.6 C 999.563 609.952 998.907 610.128 998.171 610.128 Z M 998.171 608.928 C 998.672 608.928 999.104 608.811 999.467 608.576 C 999.84 608.331 1000.13 607.995 1000.33 607.568 C 1000.53 607.131 1000.63 606.624 1000.63 606.048 C 1000.63 605.461 1000.53 604.955 1000.33 604.528 C 1000.13 604.091 999.84 603.755 999.467 603.52 C 999.104 603.285 998.672 603.168 998.171 603.168 C 997.659 603.168 997.216 603.291 996.843 603.536 C 996.47 603.771 996.182 604.101 995.979 604.528 C 995.776 604.955 995.675 605.461 995.675 606.048 C 995.675 606.624 995.776 607.131 995.979 607.568 C 996.182 607.995 996.47 608.331 996.843 608.576 C 997.216 608.811 997.659 608.928 998.171 608.928 Z M 1003.93 610 L 1003.93 602.112 L 1005.29 602.112 L 1005.29 603.792 L 1004.97 603.904 C 1005.12 603.499 1005.33 603.157 1005.58 602.88 C 1005.84 602.592 1006.15 602.373 1006.51 602.224 C 1006.87 602.064 1007.27 601.984 1007.71 601.984 C 1008.57 601.984 1009.25 602.24 1009.74 602.752 C 1010.23 603.253 1010.48 604 1010.48 604.992 L 1010.48 610 L 1009.12 610 L 1009.12 605.488 C 1009.12 604.688 1008.97 604.101 1008.67 603.728 C 1008.38 603.344 1007.94 603.152 1007.34 603.152 C 1006.9 603.152 1006.53 603.253 1006.22 603.456 C 1005.92 603.659 1005.69 603.979 1005.53 604.416 C 1005.37 604.843 1005.29 605.392 1005.29 606.064 L 1005.29 610 L 1003.93 610 Z M 1015.31 610.128 C 1014.93 610.128 1014.59 610.059 1014.28 609.92 C 1013.98 609.771 1013.75 609.536 1013.58 609.216 C 1013.41 608.896 1013.32 608.485 1013.32 607.984 L 1013.32 600 L 1014.7 599.232 L 1014.7 607.632 C 1014.7 608.069 1014.77 608.411 1014.91 608.656 C 1015.05 608.891 1015.3 609.008 1015.66 609.008 C 1015.77 609.008 1015.89 608.997 1016.04 608.976 C 1016.19 608.944 1016.35 608.907 1016.52 608.864 L 1016.52 609.92 C 1016.32 609.995 1016.11 610.048 1015.9 610.08 C 1015.7 610.112 1015.5 610.128 1015.31 610.128 Z M 1011.69 603.168 L 1011.69 602.112 L 1016.52 602.112 L 1016.52 603.168 L 1011.69 603.168 Z M 1018.21 610 L 1018.21 602.112 L 1019.57 602.112 L 1019.57 604.224 L 1019.22 604.304 C 1019.3 603.835 1019.47 603.429 1019.75 603.088 C 1020.04 602.736 1020.37 602.464 1020.74 602.272 C 1021.13 602.08 1021.5 601.984 1021.86 601.984 C 1022.11 601.984 1022.34 602.011 1022.57 602.064 C 1022.79 602.117 1023.02 602.208 1023.25 602.336 L 1022.58 603.552 C 1022.45 603.488 1022.3 603.435 1022.12 603.392 C 1021.95 603.349 1021.78 603.328 1021.62 603.328 C 1021.37 603.328 1021.11 603.376 1020.85 603.472 C 1020.61 603.568 1020.39 603.717 1020.18 603.92 C 1019.98 604.123 1019.83 604.395 1019.72 604.736 C 1019.68 604.885 1019.64 605.083 1019.61 605.328 C 1019.59 605.563 1019.57 605.888 1019.57 606.304 L 1019.57 610 L 1018.21 610 Z M 1029.71 610 L 1029.62 608.416 L 1029.62 605.056 C 1029.62 604.448 1029.44 603.979 1029.1 603.648 C 1028.77 603.317 1028.28 603.152 1027.62 603.152 C 1027.19 603.152 1026.79 603.243 1026.42 603.424 C 1026.04 603.595 1025.68 603.888 1025.33 604.304 L 1024.35 603.472 C 1024.79 602.96 1025.29 602.587 1025.86 602.352 C 1026.42 602.107 1027.04 601.984 1027.71 601.984 C 1028.75 601.984 1029.55 602.251 1030.11 602.784 C 1030.68 603.317 1030.96 604.075 1030.96 605.056 L 1030.96 610 L 1029.71 610 Z M 1027.1 610.128 C 1026.51 610.128 1025.98 610.027 1025.54 609.824 C 1025.1 609.611 1024.76 609.317 1024.51 608.944 C 1024.28 608.571 1024.16 608.139 1024.16 607.648 C 1024.16 607.211 1024.24 606.843 1024.42 606.544 C 1024.6 606.235 1024.83 605.995 1025.1 605.824 C 1025.38 605.643 1025.7 605.52 1026.05 605.456 C 1026.41 605.381 1026.79 605.344 1027.18 605.344 L 1029.74 605.344 L 1029.74 606.368 L 1027.38 606.368 C 1027.14 606.368 1026.9 606.389 1026.64 606.432 C 1026.38 606.475 1026.16 606.565 1025.97 606.704 C 1025.83 606.811 1025.72 606.944 1025.63 607.104 C 1025.56 607.264 1025.52 607.451 1025.52 607.664 C 1025.52 608.08 1025.67 608.411 1025.98 608.656 C 1026.29 608.901 1026.71 609.024 1027.23 609.024 C 1027.67 609.024 1028.06 608.923 1028.42 608.72 C 1028.78 608.517 1029.07 608.24 1029.28 607.888 C 1029.5 607.525 1029.62 607.12 1029.62 606.672 L 1030.18 607.248 C 1030.11 607.813 1029.94 608.315 1029.66 608.752 C 1029.39 609.189 1029.03 609.531 1028.59 609.776 C 1028.16 610.011 1027.67 610.128 1027.1 610.128 Z M 1035.78 610.128 C 1035.24 610.128 1034.76 610.048 1034.34 609.888 C 1033.91 609.728 1033.54 609.515 1033.23 609.248 C 1032.93 608.981 1032.69 608.699 1032.51 608.4 L 1033.46 607.6 C 1033.66 608.005 1033.96 608.341 1034.35 608.608 C 1034.76 608.864 1035.24 608.992 1035.79 608.992 C 1036.29 608.992 1036.69 608.885 1036.99 608.672 C 1037.29 608.459 1037.44 608.171 1037.44 607.808 C 1037.44 607.509 1037.35 607.275 1037.17 607.104 C 1036.99 606.933 1036.75 606.795 1036.45 606.688 C 1036.15 606.581 1035.82 606.485 1035.47 606.4 C 1035.17 606.325 1034.87 606.235 1034.56 606.128 C 1034.26 606.021 1033.99 605.888 1033.74 605.728 C 1033.5 605.568 1033.3 605.36 1033.15 605.104 C 1033 604.848 1032.93 604.533 1032.93 604.16 C 1032.93 603.509 1033.18 602.987 1033.68 602.592 C 1034.19 602.187 1034.86 601.984 1035.68 601.984 C 1036.28 601.984 1036.82 602.112 1037.31 602.368 C 1037.81 602.613 1038.2 602.987 1038.48 603.488 L 1037.62 604.128 C 1037.4 603.755 1037.12 603.488 1036.77 603.328 C 1036.43 603.157 1036.05 603.072 1035.63 603.072 C 1035.22 603.072 1034.87 603.157 1034.59 603.328 C 1034.31 603.499 1034.18 603.733 1034.18 604.032 C 1034.18 604.256 1034.24 604.437 1034.37 604.576 C 1034.5 604.715 1034.68 604.832 1034.93 604.928 C 1035.18 605.024 1035.49 605.115 1035.86 605.2 C 1036.19 605.275 1036.52 605.365 1036.86 605.472 C 1037.2 605.579 1037.52 605.717 1037.81 605.888 C 1038.1 606.059 1038.32 606.288 1038.5 606.576 C 1038.68 606.853 1038.77 607.216 1038.77 607.664 C 1038.77 608.155 1038.64 608.587 1038.4 608.96 C 1038.15 609.333 1037.81 609.621 1037.36 609.824 C 1036.91 610.027 1036.38 610.128 1035.78 610.128 Z M 1043.31 610.128 C 1042.93 610.128 1042.59 610.059 1042.28 609.92 C 1041.98 609.771 1041.75 609.536 1041.58 609.216 C 1041.41 608.896 1041.32 608.485 1041.32 607.984 L 1041.32 600 L 1042.7 599.232 L 1042.7 607.632 C 1042.7 608.069 1042.77 608.411 1042.91 608.656 C 1043.05 608.891 1043.3 609.008 1043.66 609.008 C 1043.77 609.008 1043.89 608.997 1044.04 608.976 C 1044.19 608.944 1044.35 608.907 1044.52 608.864 L 1044.52 609.92 C 1044.32 609.995 1044.11 610.048 1043.9 610.08 C 1043.7 610.112 1043.5 610.128 1043.31 610.128 Z M 1039.69 603.168 L 1039.69 602.112 L 1044.52 602.112 L 1044.52 603.168 L 1039.69 603.168 Z M 1050.37 613.264 L 1050.37 602.112 L 1051.71 602.112 L 1051.71 604.464 L 1051.28 604.16 C 1051.42 603.701 1051.62 603.312 1051.89 602.992 C 1052.17 602.661 1052.5 602.411 1052.9 602.24 C 1053.29 602.069 1053.74 601.984 1054.24 601.984 C 1054.96 601.984 1055.58 602.165 1056.11 602.528 C 1056.66 602.88 1057.08 603.365 1057.38 603.984 C 1057.68 604.592 1057.83 605.285 1057.83 606.064 C 1057.83 606.885 1057.67 607.605 1057.35 608.224 C 1057.03 608.832 1056.59 609.301 1056.05 609.632 C 1055.51 609.963 1054.9 610.128 1054.24 610.128 C 1053.74 610.128 1053.29 610.037 1052.9 609.856 C 1052.5 609.675 1052.17 609.424 1051.91 609.104 C 1051.64 608.784 1051.45 608.421 1051.33 608.016 L 1051.71 607.648 L 1051.71 613.264 L 1050.37 613.264 Z M 1054.02 608.896 C 1054.5 608.896 1054.92 608.779 1055.28 608.544 C 1055.66 608.299 1055.94 607.963 1056.15 607.536 C 1056.36 607.109 1056.47 606.619 1056.47 606.064 C 1056.47 605.509 1056.36 605.019 1056.15 604.592 C 1055.94 604.165 1055.66 603.835 1055.28 603.6 C 1054.92 603.355 1054.5 603.232 1054.02 603.232 C 1053.54 603.232 1053.12 603.355 1052.75 603.6 C 1052.39 603.835 1052.11 604.165 1051.91 604.592 C 1051.7 605.019 1051.6 605.509 1051.6 606.064 C 1051.6 606.619 1051.7 607.109 1051.91 607.536 C 1052.11 607.963 1052.39 608.299 1052.75 608.544 C 1053.12 608.779 1053.54 608.896 1054.02 608.896 Z M 1059.76 610 L 1059.76 598.848 L 1061.12 598.848 L 1061.12 603.792 L 1060.79 603.92 C 1060.93 603.515 1061.14 603.168 1061.41 602.88 C 1061.68 602.592 1061.99 602.373 1062.35 602.224 C 1062.72 602.064 1063.11 601.984 1063.54 601.984 C 1064.4 601.984 1065.08 602.24 1065.57 602.752 C 1066.06 603.253 1066.31 604 1066.31 604.992 L 1066.31 610 L 1064.95 610 L 1064.95 605.488 C 1064.95 604.688 1064.8 604.101 1064.5 603.728 C 1064.21 603.344 1063.77 603.152 1063.17 603.152 C 1062.52 603.152 1062.01 603.387 1061.65 603.856 C 1061.3 604.315 1061.12 605.051 1061.12 606.064 L 1061.12 610 L 1059.76 610 Z M 1071.98 610.128 C 1071.25 610.128 1070.59 609.957 1070 609.616 C 1069.42 609.264 1068.97 608.779 1068.64 608.16 C 1068.31 607.541 1068.14 606.837 1068.14 606.048 C 1068.14 605.259 1068.3 604.56 1068.62 603.952 C 1068.95 603.333 1069.41 602.853 1069.98 602.512 C 1070.57 602.16 1071.24 601.984 1071.98 601.984 C 1072.73 601.984 1073.39 602.16 1073.95 602.512 C 1074.53 602.853 1074.98 603.333 1075.31 603.952 C 1075.64 604.56 1075.81 605.259 1075.81 606.048 C 1075.81 606.837 1075.64 607.541 1075.31 608.16 C 1074.98 608.768 1074.53 609.248 1073.95 609.6 C 1073.38 609.952 1072.72 610.128 1071.98 610.128 Z M 1071.98 608.928 C 1072.48 608.928 1072.92 608.811 1073.28 608.576 C 1073.65 608.331 1073.94 607.995 1074.14 607.568 C 1074.35 607.131 1074.45 606.624 1074.45 606.048 C 1074.45 605.461 1074.35 604.955 1074.14 604.528 C 1073.94 604.091 1073.65 603.755 1073.28 603.52 C 1072.92 603.285 1072.48 603.168 1071.98 603.168 C 1071.47 603.168 1071.03 603.291 1070.66 603.536 C 1070.28 603.771 1069.99 604.101 1069.79 604.528 C 1069.59 604.955 1069.49 605.461 1069.49 606.048 C 1069.49 606.624 1069.59 607.131 1069.79 607.568 C 1069.99 607.995 1070.28 608.331 1070.66 608.576 C 1071.03 608.811 1071.47 608.928 1071.98 608.928 Z M 1080.2 610.128 C 1079.82 610.128 1079.48 610.059 1079.17 609.92 C 1078.88 609.771 1078.64 609.536 1078.47 609.216 C 1078.3 608.896 1078.21 608.485 1078.21 607.984 L 1078.21 600 L 1079.59 599.232 L 1079.59 607.632 C 1079.59 608.069 1079.66 608.411 1079.8 608.656 C 1079.94 608.891 1080.19 609.008 1080.55 609.008 C 1080.66 609.008 1080.78 608.997 1080.93 608.976 C 1081.08 608.944 1081.24 608.907 1081.41 608.864 L 1081.41 609.92 C 1081.21 609.995 1081 610.048 1080.79 610.08 C 1080.59 610.112 1080.39 610.128 1080.2 610.128 Z M 1076.58 603.168 L 1076.58 602.112 L 1081.41 602.112 L 1081.41 603.168 L 1076.58 603.168 Z M 1086.42 610.128 C 1085.68 610.128 1085.02 609.957 1084.44 609.616 C 1083.86 609.264 1083.41 608.779 1083.08 608.16 C 1082.75 607.541 1082.58 606.837 1082.58 606.048 C 1082.58 605.259 1082.74 604.56 1083.06 603.952 C 1083.39 603.333 1083.84 602.853 1084.42 602.512 C 1085.01 602.16 1085.67 601.984 1086.42 601.984 C 1087.17 601.984 1087.82 602.16 1088.39 602.512 C 1088.96 602.853 1089.42 603.333 1089.75 603.952 C 1090.08 604.56 1090.24 605.259 1090.24 606.048 C 1090.24 606.837 1090.08 607.541 1089.75 608.16 C 1089.42 608.768 1088.96 609.248 1088.39 609.6 C 1087.81 609.952 1087.16 610.128 1086.42 610.128 Z M 1086.42 608.928 C 1086.92 608.928 1087.35 608.811 1087.72 608.576 C 1088.09 608.331 1088.38 607.995 1088.58 607.568 C 1088.78 607.131 1088.88 606.624 1088.88 606.048 C 1088.88 605.461 1088.78 604.955 1088.58 604.528 C 1088.38 604.091 1088.09 603.755 1087.72 603.52 C 1087.35 603.285 1086.92 603.168 1086.42 603.168 C 1085.91 603.168 1085.47 603.291 1085.09 603.536 C 1084.72 603.771 1084.43 604.101 1084.23 604.528 C 1084.03 604.955 1083.92 605.461 1083.92 606.048 C 1083.92 606.624 1084.03 607.131 1084.23 607.568 C 1084.43 607.995 1084.72 608.331 1085.09 608.576 C 1085.47 608.811 1085.91 608.928 1086.42 608.928 Z M 1094.79 610.128 C 1094.26 610.128 1093.78 610.048 1093.35 609.888 C 1092.92 609.728 1092.56 609.515 1092.25 609.248 C 1091.95 608.981 1091.71 608.699 1091.53 608.4 L 1092.47 607.6 C 1092.67 608.005 1092.97 608.341 1093.37 608.608 C 1093.77 608.864 1094.25 608.992 1094.81 608.992 C 1095.31 608.992 1095.71 608.885 1096.01 608.672 C 1096.31 608.459 1096.46 608.171 1096.46 607.808 C 1096.46 607.509 1096.36 607.275 1096.18 607.104 C 1096 606.933 1095.76 606.795 1095.46 606.688 C 1095.16 606.581 1094.84 606.485 1094.49 606.4 C 1094.19 606.325 1093.88 606.235 1093.58 606.128 C 1093.28 606.021 1093 605.888 1092.76 605.728 C 1092.51 605.568 1092.32 605.36 1092.17 605.104 C 1092.02 604.848 1091.94 604.533 1091.94 604.16 C 1091.94 603.509 1092.19 602.987 1092.7 602.592 C 1093.21 602.187 1093.87 601.984 1094.7 601.984 C 1095.29 601.984 1095.84 602.112 1096.33 602.368 C 1096.83 602.613 1097.22 602.987 1097.5 603.488 L 1096.63 604.128 C 1096.42 603.755 1096.14 603.488 1095.78 603.328 C 1095.44 603.157 1095.06 603.072 1094.65 603.072 C 1094.23 603.072 1093.88 603.157 1093.61 603.328 C 1093.33 603.499 1093.19 603.733 1093.19 604.032 C 1093.19 604.256 1093.26 604.437 1093.38 604.576 C 1093.51 604.715 1093.7 604.832 1093.94 604.928 C 1094.2 605.024 1094.51 605.115 1094.87 605.2 C 1095.2 605.275 1095.54 605.365 1095.88 605.472 C 1096.22 605.579 1096.54 605.717 1096.82 605.888 C 1097.11 606.059 1097.34 606.288 1097.51 606.576 C 1097.69 606.853 1097.78 607.216 1097.78 607.664 C 1097.78 608.155 1097.66 608.587 1097.42 608.96 C 1097.17 609.333 1096.82 609.621 1096.38 609.824 C 1095.93 610.027 1095.4 610.128 1094.79 610.128 Z M 1103.84 610 L 1103.84 602.112 L 1105.18 602.112 L 1105.18 610 L 1103.84 610 Z M 1103.71 600.688 L 1103.71 598.848 L 1105.31 598.848 L 1105.31 600.688 L 1103.71 600.688 Z M 1107.46 610 L 1107.46 602.112 L 1108.82 602.112 L 1108.82 603.792 L 1108.5 603.904 C 1108.65 603.499 1108.86 603.157 1109.11 602.88 C 1109.37 602.592 1109.68 602.373 1110.04 602.224 C 1110.4 602.064 1110.8 601.984 1111.24 601.984 C 1112.1 601.984 1112.78 602.24 1113.27 602.752 C 1113.76 603.253 1114.01 604 1114.01 604.992 L 1114.01 610 L 1112.65 610 L 1112.65 605.488 C 1112.65 604.688 1112.5 604.101 1112.2 603.728 C 1111.91 603.344 1111.47 603.152 1110.87 603.152 C 1110.44 603.152 1110.06 603.253 1109.75 603.456 C 1109.45 603.659 1109.22 603.979 1109.06 604.416 C 1108.9 604.843 1108.82 605.392 1108.82 606.064 L 1108.82 610 L 1107.46 610 Z M 1125.55 610 L 1125.46 608.416 L 1125.46 605.056 C 1125.46 604.448 1125.29 603.979 1124.95 603.648 C 1124.62 603.317 1124.12 603.152 1123.46 603.152 C 1123.03 603.152 1122.63 603.243 1122.26 603.424 C 1121.89 603.595 1121.52 603.888 1121.17 604.304 L 1120.19 603.472 C 1120.63 602.96 1121.13 602.587 1121.7 602.352 C 1122.26 602.107 1122.88 601.984 1123.55 601.984 C 1124.59 601.984 1125.39 602.251 1125.95 602.784 C 1126.52 603.317 1126.8 604.075 1126.8 605.056 L 1126.8 610 L 1125.55 610 Z M 1122.95 610.128 C 1122.35 610.128 1121.83 610.027 1121.38 609.824 C 1120.94 609.611 1120.6 609.317 1120.35 608.944 C 1120.12 608.571 1120 608.139 1120 607.648 C 1120 607.211 1120.09 606.843 1120.26 606.544 C 1120.44 606.235 1120.67 605.995 1120.95 605.824 C 1121.22 605.643 1121.54 605.52 1121.89 605.456 C 1122.25 605.381 1122.63 605.344 1123.03 605.344 L 1125.59 605.344 L 1125.59 606.368 L 1123.22 606.368 C 1122.98 606.368 1122.74 606.389 1122.48 606.432 C 1122.23 606.475 1122 606.565 1121.81 606.704 C 1121.67 606.811 1121.56 606.944 1121.47 607.104 C 1121.4 607.264 1121.36 607.451 1121.36 607.664 C 1121.36 608.08 1121.52 608.411 1121.83 608.656 C 1122.14 608.901 1122.55 609.024 1123.07 609.024 C 1123.51 609.024 1123.91 608.923 1124.26 608.72 C 1124.62 608.517 1124.91 608.24 1125.12 607.888 C 1125.35 607.525 1125.46 607.12 1125.46 606.672 L 1126.02 607.248 C 1125.95 607.813 1125.78 608.315 1125.51 608.752 C 1125.23 609.189 1124.87 609.531 1124.43 609.776 C 1124.01 610.011 1123.51 610.128 1122.95 610.128 Z M 1129.01 610 L 1129.01 602.112 L 1130.37 602.112 L 1130.37 603.792 L 1130.05 603.904 C 1130.2 603.499 1130.4 603.157 1130.66 602.88 C 1130.92 602.592 1131.22 602.373 1131.59 602.224 C 1131.95 602.064 1132.35 601.984 1132.79 601.984 C 1133.65 601.984 1134.33 602.24 1134.82 602.752 C 1135.31 603.253 1135.56 604 1135.56 604.992 L 1135.56 610 L 1134.2 610 L 1134.2 605.488 C 1134.2 604.688 1134.05 604.101 1133.75 603.728 C 1133.46 603.344 1133.02 603.152 1132.42 603.152 C 1131.98 603.152 1131.61 603.253 1131.3 603.456 C 1131 603.659 1130.77 603.979 1130.61 604.416 C 1130.45 604.843 1130.37 605.392 1130.37 606.064 L 1130.37 610 L 1129.01 610 Z M 1138.34 613.248 L 1139.85 609.616 L 1136.77 602.112 L 1138.26 602.112 L 1140.57 608.256 L 1142.89 602.112 L 1144.36 602.112 L 1139.81 613.248 L 1138.34 613.248 Z M 874.736 632.128 C 874.256 632.128 873.867 631.979 873.568 631.68 C 873.269 631.381 873.12 630.907 873.12 630.256 L 873.12 620.848 L 874.464 620.848 L 874.464 630 C 874.464 630.309 874.528 630.533 874.656 630.672 C 874.784 630.811 874.955 630.88 875.168 630.88 C 875.264 630.88 875.371 630.869 875.488 630.848 C 875.605 630.827 875.728 630.795 875.856 630.752 L 875.856 631.904 C 875.675 631.979 875.483 632.032 875.28 632.064 C 875.077 632.107 874.896 632.128 874.736 632.128 Z M 877.37 632 L 877.37 624.112 L 878.714 624.112 L 878.714 632 L 877.37 632 Z M 877.242 622.688 L 877.242 620.848 L 878.842 620.848 L 878.842 622.688 L 877.242 622.688 Z M 884.18 635.408 C 883.049 635.408 882.153 635.2 881.492 634.784 C 880.83 634.368 880.5 633.792 880.5 633.056 C 880.5 633.003 880.5 632.933 880.5 632.848 C 880.51 632.763 880.526 632.683 880.548 632.608 L 882.516 631.184 L 882.98 631.504 L 881.86 632.896 C 881.849 632.939 881.844 632.976 881.844 633.008 C 881.844 633.04 881.844 633.072 881.844 633.104 C 881.844 633.531 882.068 633.845 882.516 634.048 C 882.964 634.261 883.518 634.368 884.18 634.368 C 884.766 634.368 885.252 634.283 885.636 634.112 C 886.02 633.952 886.212 633.685 886.212 633.312 C 886.212 633.099 886.148 632.923 886.02 632.784 C 885.902 632.656 885.726 632.555 885.492 632.48 C 885.268 632.405 885.001 632.341 884.692 632.288 C 884.382 632.235 884.036 632.181 883.652 632.128 C 883.172 632.053 882.702 631.947 882.244 631.808 C 881.796 631.669 881.422 631.467 881.124 631.2 C 880.836 630.933 880.692 630.581 880.692 630.144 C 880.692 629.771 880.82 629.429 881.076 629.12 C 881.342 628.811 881.689 628.555 882.116 628.352 L 882.98 628.912 C 882.617 628.997 882.361 629.131 882.212 629.312 C 882.062 629.483 881.988 629.691 881.988 629.936 C 881.988 630.139 882.057 630.304 882.196 630.432 C 882.345 630.56 882.553 630.661 882.82 630.736 C 883.097 630.8 883.428 630.859 883.812 630.912 C 884.324 630.987 884.804 631.067 885.252 631.152 C 885.7 631.237 886.094 631.36 886.436 631.52 C 886.788 631.669 887.06 631.872 887.252 632.128 C 887.444 632.395 887.54 632.736 887.54 633.152 C 887.54 633.877 887.241 634.432 886.644 634.816 C 886.046 635.211 885.225 635.408 884.18 635.408 Z M 883.988 629.536 C 883.38 629.536 882.841 629.419 882.372 629.184 C 881.902 628.949 881.534 628.624 881.268 628.208 C 881.012 627.792 880.884 627.317 880.884 626.784 C 880.884 626.229 881.017 625.744 881.284 625.328 C 881.561 624.901 881.929 624.571 882.388 624.336 C 882.857 624.101 883.374 623.984 883.94 623.984 C 884.494 623.984 885.001 624.101 885.46 624.336 C 885.918 624.571 886.286 624.901 886.564 625.328 C 886.841 625.755 886.98 626.256 886.98 626.832 C 886.98 627.376 886.852 627.851 886.596 628.256 C 886.34 628.661 885.988 628.976 885.54 629.2 C 885.092 629.424 884.574 629.536 883.988 629.536 Z M 883.956 628.432 C 884.489 628.432 884.9 628.272 885.188 627.952 C 885.486 627.621 885.636 627.221 885.636 626.752 C 885.636 626.251 885.481 625.845 885.172 625.536 C 884.862 625.227 884.457 625.072 883.956 625.072 C 883.444 625.072 883.028 625.232 882.708 625.552 C 882.388 625.861 882.228 626.256 882.228 626.736 C 882.228 627.216 882.382 627.621 882.692 627.952 C 883.001 628.272 883.422 628.432 883.956 628.432 Z M 886.468 625.584 L 885.492 624.928 L 887.156 623.552 L 887.844 624.4 L 886.468 625.584 Z M 889.215 632 L 889.215 620.848 L 890.575 620.848 L 890.575 625.792 L 890.239 625.92 C 890.388 625.515 890.596 625.168 890.863 624.88 C 891.129 624.592 891.444 624.373 891.807 624.224 C 892.169 624.064 892.564 623.984 892.991 623.984 C 893.855 623.984 894.532 624.24 895.023 624.752 C 895.513 625.253 895.759 626 895.759 626.992 L 895.759 632 L 894.399 632 L 894.399 627.488 C 894.399 626.688 894.249 626.101 893.951 625.728 C 893.663 625.344 893.22 625.152 892.623 625.152 C 891.972 625.152 891.465 625.387 891.103 625.856 C 890.751 626.315 890.575 627.051 890.575 628.064 L 890.575 632 L 889.215 632 Z M 900.385 632.128 C 900.012 632.128 899.671 632.059 899.361 631.92 C 899.063 631.771 898.828 631.536 898.657 631.216 C 898.487 630.896 898.401 630.485 898.401 629.984 L 898.401 622 L 899.777 621.232 L 899.777 629.632 C 899.777 630.069 899.847 630.411 899.985 630.656 C 900.124 630.891 900.375 631.008 900.737 631.008 C 900.844 631.008 900.972 630.997 901.121 630.976 C 901.271 630.944 901.431 630.907 901.601 630.864 L 901.601 631.92 C 901.399 631.995 901.191 632.048 900.977 632.08 C 900.775 632.112 900.577 632.128 900.385 632.128 Z M 896.769 625.168 L 896.769 624.112 L 901.601 624.112 L 901.601 625.168 L 896.769 625.168 Z M 903.277 632 L 903.277 624.112 L 904.621 624.112 L 904.621 632 L 903.277 632 Z M 903.149 622.688 L 903.149 620.848 L 904.749 620.848 L 904.749 622.688 L 903.149 622.688 Z M 906.902 632 L 906.902 624.112 L 908.262 624.112 L 908.262 625.792 L 907.942 625.904 C 908.091 625.499 908.294 625.157 908.55 624.88 C 908.806 624.592 909.115 624.373 909.478 624.224 C 909.841 624.064 910.241 623.984 910.678 623.984 C 911.542 623.984 912.219 624.24 912.71 624.752 C 913.201 625.253 913.446 626 913.446 626.992 L 913.446 632 L 912.086 632 L 912.086 627.488 C 912.086 626.688 911.937 626.101 911.638 625.728 C 911.35 625.344 910.907 625.152 910.31 625.152 C 909.873 625.152 909.499 625.253 909.19 625.456 C 908.891 625.659 908.662 625.979 908.502 626.416 C 908.342 626.843 908.262 627.392 908.262 628.064 L 908.262 632 L 906.902 632 Z M 918.836 635.408 C 917.705 635.408 916.809 635.2 916.148 634.784 C 915.487 634.368 915.156 633.792 915.156 633.056 C 915.156 633.003 915.156 632.933 915.156 632.848 C 915.167 632.763 915.183 632.683 915.204 632.608 L 917.172 631.184 L 917.636 631.504 L 916.516 632.896 C 916.505 632.939 916.5 632.976 916.5 633.008 C 916.5 633.04 916.5 633.072 916.5 633.104 C 916.5 633.531 916.724 633.845 917.172 634.048 C 917.62 634.261 918.175 634.368 918.836 634.368 C 919.423 634.368 919.908 634.283 920.292 634.112 C 920.676 633.952 920.868 633.685 920.868 633.312 C 920.868 633.099 920.804 632.923 920.676 632.784 C 920.559 632.656 920.383 632.555 920.148 632.48 C 919.924 632.405 919.657 632.341 919.348 632.288 C 919.039 632.235 918.692 632.181 918.308 632.128 C 917.828 632.053 917.359 631.947 916.9 631.808 C 916.452 631.669 916.079 631.467 915.78 631.2 C 915.492 630.933 915.348 630.581 915.348 630.144 C 915.348 629.771 915.476 629.429 915.732 629.12 C 915.999 628.811 916.345 628.555 916.772 628.352 L 917.636 628.912 C 917.273 628.997 917.017 629.131 916.868 629.312 C 916.719 629.483 916.644 629.691 916.644 629.936 C 916.644 630.139 916.713 630.304 916.852 630.432 C 917.001 630.56 917.209 630.661 917.476 630.736 C 917.753 630.8 918.084 630.859 918.468 630.912 C 918.98 630.987 919.46 631.067 919.908 631.152 C 920.356 631.237 920.751 631.36 921.092 631.52 C 921.444 631.669 921.716 631.872 921.908 632.128 C 922.1 632.395 922.196 632.736 922.196 633.152 C 922.196 633.877 921.897 634.432 921.3 634.816 C 920.703 635.211 919.881 635.408 918.836 635.408 Z M 918.644 629.536 C 918.036 629.536 917.497 629.419 917.028 629.184 C 916.559 628.949 916.191 628.624 915.924 628.208 C 915.668 627.792 915.54 627.317 915.54 626.784 C 915.54 626.229 915.673 625.744 915.94 625.328 C 916.217 624.901 916.585 624.571 917.044 624.336 C 917.513 624.101 918.031 623.984 918.596 623.984 C 919.151 623.984 919.657 624.101 920.116 624.336 C 920.575 624.571 920.943 624.901 921.22 625.328 C 921.497 625.755 921.636 626.256 921.636 626.832 C 921.636 627.376 921.508 627.851 921.252 628.256 C 920.996 628.661 920.644 628.976 920.196 629.2 C 919.748 629.424 919.231 629.536 918.644 629.536 Z M 918.612 628.432 C 919.145 628.432 919.556 628.272 919.844 627.952 C 920.143 627.621 920.292 627.221 920.292 626.752 C 920.292 626.251 920.137 625.845 919.828 625.536 C 919.519 625.227 919.113 625.072 918.612 625.072 C 918.1 625.072 917.684 625.232 917.364 625.552 C 917.044 625.861 916.884 626.256 916.884 626.736 C 916.884 627.216 917.039 627.621 917.348 627.952 C 917.657 628.272 918.079 628.432 918.612 628.432 Z M 921.124 625.584 L 920.148 624.928 L 921.812 623.552 L 922.5 624.4 L 921.124 625.584 Z M 931.307 632.128 C 930.72 632.128 930.198 632.021 929.739 631.808 C 929.291 631.595 928.912 631.301 928.603 630.928 C 928.294 630.544 928.059 630.107 927.899 629.616 C 927.739 629.125 927.659 628.603 927.659 628.048 C 927.659 627.504 927.739 626.987 927.899 626.496 C 928.059 626.005 928.294 625.573 928.603 625.2 C 928.912 624.816 929.291 624.517 929.739 624.304 C 930.198 624.091 930.72 623.984 931.307 623.984 C 932.054 623.984 932.704 624.165 933.259 624.528 C 933.824 624.891 934.24 625.445 934.507 626.192 L 933.307 626.656 C 933.158 626.208 932.918 625.845 932.587 625.568 C 932.256 625.291 931.83 625.152 931.307 625.152 C 930.784 625.152 930.352 625.291 930.011 625.568 C 929.67 625.845 929.414 626.203 929.243 626.64 C 929.083 627.077 929.003 627.547 929.003 628.048 C 929.003 628.549 929.083 629.024 929.243 629.472 C 929.414 629.909 929.67 630.267 930.011 630.544 C 930.352 630.811 930.784 630.944 931.307 630.944 C 931.83 630.944 932.256 630.811 932.587 630.544 C 932.918 630.267 933.158 629.899 933.307 629.44 L 934.507 629.904 C 934.24 630.651 933.824 631.211 933.259 631.584 C 932.704 631.947 932.054 632.128 931.307 632.128 Z M 939.78 632.128 C 939.044 632.128 938.383 631.957 937.796 631.616 C 937.22 631.264 936.767 630.779 936.436 630.16 C 936.106 629.541 935.94 628.837 935.94 628.048 C 935.94 627.259 936.1 626.56 936.42 625.952 C 936.751 625.333 937.204 624.853 937.78 624.512 C 938.367 624.16 939.034 623.984 939.78 623.984 C 940.527 623.984 941.183 624.16 941.748 624.512 C 942.324 624.853 942.778 625.333 943.108 625.952 C 943.439 626.56 943.604 627.259 943.604 628.048 C 943.604 628.837 943.439 629.541 943.108 630.16 C 942.778 630.768 942.324 631.248 941.748 631.6 C 941.172 631.952 940.516 632.128 939.78 632.128 Z M 939.78 630.928 C 940.282 630.928 940.714 630.811 941.076 630.576 C 941.45 630.331 941.738 629.995 941.94 629.568 C 942.143 629.131 942.244 628.624 942.244 628.048 C 942.244 627.461 942.143 626.955 941.94 626.528 C 941.738 626.091 941.45 625.755 941.076 625.52 C 940.714 625.285 940.282 625.168 939.78 625.168 C 939.268 625.168 938.826 625.291 938.452 625.536 C 938.079 625.771 937.791 626.101 937.588 626.528 C 937.386 626.955 937.284 627.461 937.284 628.048 C 937.284 628.624 937.386 629.131 937.588 629.568 C 937.791 629.995 938.079 630.331 938.452 630.576 C 938.826 630.811 939.268 630.928 939.78 630.928 Z M 945.543 632 L 945.543 624.112 L 946.903 624.112 L 946.903 625.792 L 946.583 625.904 C 946.732 625.499 946.935 625.157 947.191 624.88 C 947.447 624.592 947.756 624.373 948.119 624.224 C 948.481 624.064 948.881 623.984 949.319 623.984 C 950.183 623.984 950.86 624.24 951.351 624.752 C 951.841 625.253 952.087 626 952.087 626.992 L 952.087 632 L 950.727 632 L 950.727 627.488 C 950.727 626.688 950.577 626.101 950.279 625.728 C 949.991 625.344 949.548 625.152 948.951 625.152 C 948.513 625.152 948.14 625.253 947.831 625.456 C 947.532 625.659 947.303 625.979 947.143 626.416 C 946.983 626.843 946.903 627.392 946.903 628.064 L 946.903 632 L 945.543 632 Z M 957.509 632.128 C 956.794 632.128 956.165 631.952 955.621 631.6 C 955.087 631.237 954.671 630.747 954.373 630.128 C 954.074 629.509 953.925 628.816 953.925 628.048 C 953.925 627.216 954.085 626.496 954.405 625.888 C 954.725 625.28 955.157 624.811 955.701 624.48 C 956.245 624.149 956.847 623.984 957.509 623.984 C 958.01 623.984 958.458 624.085 958.853 624.288 C 959.247 624.48 959.578 624.747 959.845 625.088 C 960.122 625.419 960.314 625.792 960.421 626.208 L 960.037 626.464 L 960.037 620.848 L 961.381 620.848 L 961.381 632 L 960.037 632 L 960.037 629.648 L 960.485 629.792 C 960.346 630.251 960.138 630.656 959.861 631.008 C 959.583 631.36 959.247 631.637 958.853 631.84 C 958.458 632.032 958.01 632.128 957.509 632.128 Z M 957.733 630.88 C 958.213 630.88 958.634 630.763 958.997 630.528 C 959.359 630.283 959.642 629.947 959.845 629.52 C 960.047 629.093 960.149 628.603 960.149 628.048 C 960.149 627.493 960.047 627.003 959.845 626.576 C 959.642 626.149 959.359 625.819 958.997 625.584 C 958.634 625.339 958.213 625.216 957.733 625.216 C 957.253 625.216 956.826 625.339 956.453 625.584 C 956.09 625.819 955.802 626.149 955.589 626.576 C 955.386 627.003 955.285 627.493 955.285 628.048 C 955.285 628.603 955.386 629.093 955.589 629.52 C 955.802 629.947 956.09 630.283 956.453 630.528 C 956.826 630.763 957.253 630.88 957.733 630.88 Z M 963.667 632 L 963.667 624.112 L 965.011 624.112 L 965.011 632 L 963.667 632 Z M 963.539 622.688 L 963.539 620.848 L 965.139 620.848 L 965.139 622.688 L 963.539 622.688 Z M 969.917 632.128 C 969.543 632.128 969.202 632.059 968.893 631.92 C 968.594 631.771 968.359 631.536 968.189 631.216 C 968.018 630.896 967.933 630.485 967.933 629.984 L 967.933 622 L 969.309 621.232 L 969.309 629.632 C 969.309 630.069 969.378 630.411 969.517 630.656 C 969.655 630.891 969.906 631.008 970.269 631.008 C 970.375 631.008 970.503 630.997 970.653 630.976 C 970.802 630.944 970.962 630.907 971.133 630.864 L 971.133 631.92 C 970.93 631.995 970.722 632.048 970.509 632.08 C 970.306 632.112 970.109 632.128 969.917 632.128 Z M 966.301 625.168 L 966.301 624.112 L 971.133 624.112 L 971.133 625.168 L 966.301 625.168 Z M 972.808 632 L 972.808 624.112 L 974.152 624.112 L 974.152 632 L 972.808 632 Z M 972.68 622.688 L 972.68 620.848 L 974.28 620.848 L 974.28 622.688 L 972.68 622.688 Z M 979.905 632.128 C 979.169 632.128 978.508 631.957 977.921 631.616 C 977.345 631.264 976.892 630.779 976.561 630.16 C 976.231 629.541 976.065 628.837 976.065 628.048 C 976.065 627.259 976.225 626.56 976.545 625.952 C 976.876 625.333 977.329 624.853 977.905 624.512 C 978.492 624.16 979.159 623.984 979.905 623.984 C 980.652 623.984 981.308 624.16 981.873 624.512 C 982.449 624.853 982.903 625.333 983.233 625.952 C 983.564 626.56 983.729 627.259 983.729 628.048 C 983.729 628.837 983.564 629.541 983.233 630.16 C 982.903 630.768 982.449 631.248 981.873 631.6 C 981.297 631.952 980.641 632.128 979.905 632.128 Z M 979.905 630.928 C 980.407 630.928 980.839 630.811 981.201 630.576 C 981.575 630.331 981.863 629.995 982.065 629.568 C 982.268 629.131 982.369 628.624 982.369 628.048 C 982.369 627.461 982.268 626.955 982.065 626.528 C 981.863 626.091 981.575 625.755 981.201 625.52 C 980.839 625.285 980.407 625.168 979.905 625.168 C 979.393 625.168 978.951 625.291 978.577 625.536 C 978.204 625.771 977.916 626.101 977.713 626.528 C 977.511 626.955 977.409 627.461 977.409 628.048 C 977.409 628.624 977.511 629.131 977.713 629.568 C 977.916 629.995 978.204 630.331 978.577 630.576 C 978.951 630.811 979.393 630.928 979.905 630.928 Z M 985.668 632 L 985.668 624.112 L 987.028 624.112 L 987.028 625.792 L 986.708 625.904 C 986.857 625.499 987.06 625.157 987.316 624.88 C 987.572 624.592 987.881 624.373 988.244 624.224 C 988.606 624.064 989.006 623.984 989.444 623.984 C 990.308 623.984 990.985 624.24 991.476 624.752 C 991.966 625.253 992.212 626 992.212 626.992 L 992.212 632 L 990.852 632 L 990.852 627.488 C 990.852 626.688 990.702 626.101 990.404 625.728 C 990.116 625.344 989.673 625.152 989.076 625.152 C 988.638 625.152 988.265 625.253 987.956 625.456 C 987.657 625.659 987.428 625.979 987.268 626.416 C 987.108 626.843 987.028 627.392 987.028 628.064 L 987.028 632 L 985.668 632 Z M 997.806 627.648 L 997.806 626.64 L 1013.97 626.64 L 1013.97 627.648 L 997.806 627.648 Z M 1022.87 632.128 C 1022.15 632.128 1021.52 631.952 1020.98 631.6 C 1020.45 631.237 1020.03 630.747 1019.73 630.128 C 1019.43 629.509 1019.28 628.816 1019.28 628.048 C 1019.28 627.216 1019.44 626.496 1019.76 625.888 C 1020.08 625.28 1020.52 624.811 1021.06 624.48 C 1021.6 624.149 1022.21 623.984 1022.87 623.984 C 1023.37 623.984 1023.82 624.085 1024.21 624.288 C 1024.61 624.48 1024.94 624.747 1025.2 625.088 C 1025.48 625.419 1025.67 625.792 1025.78 626.208 L 1025.4 626.464 L 1025.4 620.848 L 1026.74 620.848 L 1026.74 632 L 1025.4 632 L 1025.4 629.648 L 1025.84 629.792 C 1025.71 630.251 1025.5 630.656 1025.22 631.008 C 1024.94 631.36 1024.61 631.637 1024.21 631.84 C 1023.82 632.032 1023.37 632.128 1022.87 632.128 Z M 1023.09 630.88 C 1023.57 630.88 1023.99 630.763 1024.36 630.528 C 1024.72 630.283 1025 629.947 1025.2 629.52 C 1025.41 629.093 1025.51 628.603 1025.51 628.048 C 1025.51 627.493 1025.41 627.003 1025.2 626.576 C 1025 626.149 1024.72 625.819 1024.36 625.584 C 1023.99 625.339 1023.57 625.216 1023.09 625.216 C 1022.61 625.216 1022.19 625.339 1021.81 625.584 C 1021.45 625.819 1021.16 626.149 1020.95 626.576 C 1020.75 627.003 1020.64 627.493 1020.64 628.048 C 1020.64 628.603 1020.75 629.093 1020.95 629.52 C 1021.16 629.947 1021.45 630.283 1021.81 630.528 C 1022.19 630.763 1022.61 630.88 1023.09 630.88 Z M 1034.23 632 L 1034.13 630.416 L 1034.13 627.056 C 1034.13 626.448 1033.96 625.979 1033.62 625.648 C 1033.29 625.317 1032.79 625.152 1032.13 625.152 C 1031.7 625.152 1031.3 625.243 1030.93 625.424 C 1030.56 625.595 1030.19 625.888 1029.84 626.304 L 1028.87 625.472 C 1029.3 624.96 1029.81 624.587 1030.37 624.352 C 1030.94 624.107 1031.55 623.984 1032.23 623.984 C 1033.26 623.984 1034.06 624.251 1034.63 624.784 C 1035.19 625.317 1035.47 626.075 1035.47 627.056 L 1035.47 632 L 1034.23 632 Z M 1031.62 632.128 C 1031.02 632.128 1030.5 632.027 1030.05 631.824 C 1029.61 631.611 1029.27 631.317 1029.03 630.944 C 1028.79 630.571 1028.67 630.139 1028.67 629.648 C 1028.67 629.211 1028.76 628.843 1028.93 628.544 C 1029.11 628.235 1029.34 627.995 1029.62 627.824 C 1029.9 627.643 1030.21 627.52 1030.56 627.456 C 1030.93 627.381 1031.3 627.344 1031.7 627.344 L 1034.26 627.344 L 1034.26 628.368 L 1031.89 628.368 C 1031.66 628.368 1031.41 628.389 1031.15 628.432 C 1030.9 628.475 1030.67 628.565 1030.48 628.704 C 1030.34 628.811 1030.23 628.944 1030.15 629.104 C 1030.07 629.264 1030.03 629.451 1030.03 629.664 C 1030.03 630.08 1030.19 630.411 1030.5 630.656 C 1030.81 630.901 1031.22 631.024 1031.75 631.024 C 1032.18 631.024 1032.58 630.923 1032.93 630.72 C 1033.29 630.517 1033.58 630.24 1033.79 629.888 C 1034.02 629.525 1034.13 629.12 1034.13 628.672 L 1034.69 629.248 C 1034.63 629.813 1034.46 630.315 1034.18 630.752 C 1033.9 631.189 1033.54 631.531 1033.11 631.776 C 1032.68 632.011 1032.18 632.128 1031.62 632.128 Z M 1038.26 635.248 L 1039.77 631.616 L 1036.7 624.112 L 1038.18 624.112 L 1040.49 630.256 L 1042.81 624.112 L 1044.28 624.112 L 1039.74 635.248 L 1038.26 635.248 Z M 1053.45 632.128 C 1052.72 632.128 1052.05 631.957 1051.47 631.616 C 1050.89 631.264 1050.44 630.779 1050.11 630.16 C 1049.78 629.541 1049.61 628.837 1049.61 628.048 C 1049.61 627.259 1049.77 626.56 1050.09 625.952 C 1050.42 625.333 1050.88 624.853 1051.45 624.512 C 1052.04 624.16 1052.71 623.984 1053.45 623.984 C 1054.2 623.984 1054.85 624.16 1055.42 624.512 C 1056 624.853 1056.45 625.333 1056.78 625.952 C 1057.11 626.56 1057.28 627.259 1057.28 628.048 C 1057.28 628.837 1057.11 629.541 1056.78 630.16 C 1056.45 630.768 1056 631.248 1055.42 631.6 C 1054.84 631.952 1054.19 632.128 1053.45 632.128 Z M 1053.45 630.928 C 1053.95 630.928 1054.39 630.811 1054.75 630.576 C 1055.12 630.331 1055.41 629.995 1055.61 629.568 C 1055.81 629.131 1055.92 628.624 1055.92 628.048 C 1055.92 627.461 1055.81 626.955 1055.61 626.528 C 1055.41 626.091 1055.12 625.755 1054.75 625.52 C 1054.39 625.285 1053.95 625.168 1053.45 625.168 C 1052.94 625.168 1052.5 625.291 1052.12 625.536 C 1051.75 625.771 1051.46 626.101 1051.26 626.528 C 1051.06 626.955 1050.96 627.461 1050.96 628.048 C 1050.96 628.624 1051.06 629.131 1051.26 629.568 C 1051.46 629.995 1051.75 630.331 1052.12 630.576 C 1052.5 630.811 1052.94 630.928 1053.45 630.928 Z M 1059.21 632 L 1059.21 624.112 L 1060.57 624.112 L 1060.57 626.224 L 1060.22 626.304 C 1060.3 625.835 1060.47 625.429 1060.75 625.088 C 1061.04 624.736 1061.37 624.464 1061.74 624.272 C 1062.13 624.08 1062.5 623.984 1062.86 623.984 C 1063.11 623.984 1063.34 624.011 1063.57 624.064 C 1063.79 624.117 1064.02 624.208 1064.25 624.336 L 1063.58 625.552 C 1063.45 625.488 1063.3 625.435 1063.12 625.392 C 1062.95 625.349 1062.78 625.328 1062.62 625.328 C 1062.37 625.328 1062.11 625.376 1061.85 625.472 C 1061.61 625.568 1061.39 625.717 1061.18 625.92 C 1060.98 626.123 1060.83 626.395 1060.72 626.736 C 1060.68 626.885 1060.64 627.083 1060.61 627.328 C 1060.59 627.563 1060.57 627.888 1060.57 628.304 L 1060.57 632 L 1059.21 632 Z M 1069.89 632 L 1069.89 624.112 L 1071.25 624.112 L 1071.25 625.792 L 1070.93 625.904 C 1071.08 625.499 1071.28 625.157 1071.53 624.88 C 1071.79 624.592 1072.1 624.373 1072.46 624.224 C 1072.83 624.064 1073.23 623.984 1073.66 623.984 C 1074.53 623.984 1075.2 624.24 1075.69 624.752 C 1076.19 625.253 1076.43 626 1076.43 626.992 L 1076.43 632 L 1075.07 632 L 1075.07 627.488 C 1075.07 626.688 1074.92 626.101 1074.62 625.728 C 1074.33 625.344 1073.89 625.152 1073.29 625.152 C 1072.86 625.152 1072.48 625.253 1072.17 625.456 C 1071.88 625.659 1071.65 625.979 1071.49 626.416 C 1071.33 626.843 1071.25 627.392 1071.25 628.064 L 1071.25 632 L 1069.89 632 Z M 1078.62 632 L 1078.62 624.112 L 1079.96 624.112 L 1079.96 632 L 1078.62 632 Z M 1078.49 622.688 L 1078.49 620.848 L 1080.09 620.848 L 1080.09 622.688 L 1078.49 622.688 Z M 1085.43 635.408 C 1084.3 635.408 1083.4 635.2 1082.74 634.784 C 1082.08 634.368 1081.75 633.792 1081.75 633.056 C 1081.75 633.003 1081.75 632.933 1081.75 632.848 C 1081.76 632.763 1081.78 632.683 1081.8 632.608 L 1083.77 631.184 L 1084.23 631.504 L 1083.11 632.896 C 1083.1 632.939 1083.09 632.976 1083.09 633.008 C 1083.09 633.04 1083.09 633.072 1083.09 633.104 C 1083.09 633.531 1083.32 633.845 1083.77 634.048 C 1084.21 634.261 1084.77 634.368 1085.43 634.368 C 1086.02 634.368 1086.5 634.283 1086.89 634.112 C 1087.27 633.952 1087.46 633.685 1087.46 633.312 C 1087.46 633.099 1087.4 632.923 1087.27 632.784 C 1087.15 632.656 1086.98 632.555 1086.74 632.48 C 1086.52 632.405 1086.25 632.341 1085.94 632.288 C 1085.63 632.235 1085.29 632.181 1084.9 632.128 C 1084.42 632.053 1083.95 631.947 1083.49 631.808 C 1083.05 631.669 1082.67 631.467 1082.37 631.2 C 1082.09 630.933 1081.94 630.581 1081.94 630.144 C 1081.94 629.771 1082.07 629.429 1082.33 629.12 C 1082.59 628.811 1082.94 628.555 1083.37 628.352 L 1084.23 628.912 C 1083.87 628.997 1083.61 629.131 1083.46 629.312 C 1083.31 629.483 1083.24 629.691 1083.24 629.936 C 1083.24 630.139 1083.31 630.304 1083.45 630.432 C 1083.6 630.56 1083.8 630.661 1084.07 630.736 C 1084.35 630.8 1084.68 630.859 1085.06 630.912 C 1085.57 630.987 1086.05 631.067 1086.5 631.152 C 1086.95 631.237 1087.34 631.36 1087.69 631.52 C 1088.04 631.669 1088.31 631.872 1088.5 632.128 C 1088.69 632.395 1088.79 632.736 1088.79 633.152 C 1088.79 633.877 1088.49 634.432 1087.89 634.816 C 1087.3 635.211 1086.48 635.408 1085.43 635.408 Z M 1085.24 629.536 C 1084.63 629.536 1084.09 629.419 1083.62 629.184 C 1083.15 628.949 1082.78 628.624 1082.52 628.208 C 1082.26 627.792 1082.13 627.317 1082.13 626.784 C 1082.13 626.229 1082.27 625.744 1082.53 625.328 C 1082.81 624.901 1083.18 624.571 1083.64 624.336 C 1084.11 624.101 1084.62 623.984 1085.19 623.984 C 1085.74 623.984 1086.25 624.101 1086.71 624.336 C 1087.17 624.571 1087.54 624.901 1087.81 625.328 C 1088.09 625.755 1088.23 626.256 1088.23 626.832 C 1088.23 627.376 1088.1 627.851 1087.85 628.256 C 1087.59 628.661 1087.24 628.976 1086.79 629.2 C 1086.34 629.424 1085.82 629.536 1085.24 629.536 Z M 1085.21 628.432 C 1085.74 628.432 1086.15 628.272 1086.44 627.952 C 1086.74 627.621 1086.89 627.221 1086.89 626.752 C 1086.89 626.251 1086.73 625.845 1086.42 625.536 C 1086.11 625.227 1085.71 625.072 1085.21 625.072 C 1084.69 625.072 1084.28 625.232 1083.96 625.552 C 1083.64 625.861 1083.48 626.256 1083.48 626.736 C 1083.48 627.216 1083.63 627.621 1083.94 627.952 C 1084.25 628.272 1084.67 628.432 1085.21 628.432 Z M 1087.72 625.584 L 1086.74 624.928 L 1088.41 623.552 L 1089.09 624.4 L 1087.72 625.584 Z M 1090.46 632 L 1090.46 620.848 L 1091.82 620.848 L 1091.82 625.792 L 1091.49 625.92 C 1091.64 625.515 1091.85 625.168 1092.11 624.88 C 1092.38 624.592 1092.69 624.373 1093.06 624.224 C 1093.42 624.064 1093.81 623.984 1094.24 623.984 C 1095.1 623.984 1095.78 624.24 1096.27 624.752 C 1096.76 625.253 1097.01 626 1097.01 626.992 L 1097.01 632 L 1095.65 632 L 1095.65 627.488 C 1095.65 626.688 1095.5 626.101 1095.2 625.728 C 1094.91 625.344 1094.47 625.152 1093.87 625.152 C 1093.22 625.152 1092.72 625.387 1092.35 625.856 C 1092 626.315 1091.82 627.051 1091.82 628.064 L 1091.82 632 L 1090.46 632 Z M 1101.64 632.128 C 1101.26 632.128 1100.92 632.059 1100.61 631.92 C 1100.31 631.771 1100.08 631.536 1099.91 631.216 C 1099.74 630.896 1099.65 630.485 1099.65 629.984 L 1099.65 622 L 1101.03 621.232 L 1101.03 629.632 C 1101.03 630.069 1101.1 630.411 1101.24 630.656 C 1101.37 630.891 1101.62 631.008 1101.99 631.008 C 1102.09 631.008 1102.22 630.997 1102.37 630.976 C 1102.52 630.944 1102.68 630.907 1102.85 630.864 L 1102.85 631.92 C 1102.65 631.995 1102.44 632.048 1102.23 632.08 C 1102.02 632.112 1101.83 632.128 1101.64 632.128 Z M 1098.02 625.168 L 1098.02 624.112 L 1102.85 624.112 L 1102.85 625.168 L 1098.02 625.168 Z M 1104.51 632 L 1104.51 630.144 L 1106.11 630.144 L 1106.11 632 L 1104.51 632 Z" stroke-linecap="round"></path>
</g>
		<g transform="matrix(0.5247 0 0 0.5158 47.2829 58.3298)">
	<g><use href="#img-dedup-3" xlink:href="#img-dedup-3" x="-292" y="-169" width="584" height="338" style="stroke: none; stroke-width: 0; stroke-dasharray: none; stroke-linecap: butt; stroke-dashoffset: 0; stroke-linejoin: miter; stroke-miterlimit: 4; fill: rgb(0,0,0); fill-rule: nonzero; opacity: 1;"></use></g>
</g>
</g>
</g>
<g transform="matrix(0.6983 0 0 0.6983 160 1346.0922)">
<g style="">
		<g transform="matrix(1 0 0 1 0 0)">
<rect style="stroke: none; stroke-width: 1; stroke-dasharray: none; stroke-linecap: butt; stroke-dashoffset: 0; stroke-linejoin: miter; stroke-miterlimit: 4; fill: rgb(24,58,40); fill-rule: nonzero; opacity: 0.04;" x="-200" y="-145" rx="24" ry="24" width="400" height="290"></rect>
</g>
		<g transform="matrix(1 0 0 1 -51.1771 -103.928)" style="">
		<text xml:space="preserve" font-family="'Hanken Grotesk', 'Hanken Grotesk SemiBold', Hanken-Grotesk, Hanken-Grotesk-SemiBold, 'sans serif', sans-serif" font-size="24" font-style="normal" font-weight="600" style="stroke: none; stroke-width: 1; stroke-dasharray: none; stroke-linecap: butt; stroke-dashoffset: 0; stroke-linejoin: miter; stroke-miterlimit: 4; fill: rgb(24,58,40); fill-rule: nonzero; opacity: 1; text-decoration-thickness: 4.6551%; white-space: pre;"><tspan x="-116.6629" y="7.5394">Endure + Battery</tspan></text>
</g>
		<g transform="matrix(1 0 0 1 -10.4298 -44.74)" style="">
		<text xml:space="preserve" font-family="'Hanken Grotesk', Hanken-Grotesk, 'sans serif', sans-serif" font-size="16" font-style="normal" font-weight="400" style="stroke: none; stroke-width: 1; stroke-dasharray: none; stroke-linecap: butt; stroke-dashoffset: 0; stroke-linejoin: miter; stroke-miterlimit: 4; fill: rgb(24,58,40); fill-rule: nonzero; opacity: 0.79; text-decoration-thickness: 4.6551%; white-space: pre;"><tspan x="-157.4102" y="-17.5738">Long-lasting performance means you can</tspan><tspan x="-157.4102" y="5.0262">film all day without worrying about running</tspan><tspan x="-157.4102" y="27.6262">out of power.</tspan></text>
</g>
		<g transform="matrix(0.5146 0 0 0.5272 69.6602 60.3839)">
	<g><use href="#img-dedup-2" xlink:href="#img-dedup-2" x="-252" y="-160" width="504" height="320" style="stroke: none; stroke-width: 0; stroke-dasharray: none; stroke-linecap: butt; stroke-dashoffset: 0; stroke-linejoin: miter; stroke-miterlimit: 4; fill: rgb(0,0,0); fill-rule: nonzero; opacity: 1;"></use></g>
</g>
</g>
</g>
<g transform="matrix(0.9459 0 0 0.9459 160 1637.9961)">
<g style="">
		<g transform="matrix(0.5324 0 0 3.563 0 0)">
<rect style="stroke: none; stroke-width: 1; stroke-dasharray: none; stroke-linecap: butt; stroke-dashoffset: 0; stroke-linejoin: miter; stroke-miterlimit: 4; fill: rgb(245,230,211); fill-rule: nonzero; opacity: 0;" x="-277.5" y="-53" rx="0" ry="0" width="555" height="106"></rect>
</g>
		<g transform="matrix(1 0 0 1 -0.0072 -45.1205)">
<rect style="stroke: none; stroke-width: 1; stroke-dasharray: none; stroke-linecap: butt; stroke-dashoffset: 0; stroke-linejoin: miter; stroke-miterlimit: 4; fill: rgb(156,120,79); fill-rule: nonzero; opacity: 1;" x="-147.5" y="-145" rx="24" ry="24" width="295" height="290"></rect>
</g>
		<g transform="matrix(1 0 0 1 0.9328 -59.9432)" style="">
		<text xml:space="preserve" font-family="'Hanken Grotesk', 'Hanken Grotesk SemiBold', Hanken-Grotesk, Hanken-Grotesk-SemiBold, 'sans serif', sans-serif" font-size="60" font-style="normal" font-weight="600" style="stroke: none; stroke-width: 1; stroke-dasharray: none; stroke-linecap: butt; stroke-dashoffset: 0; stroke-linejoin: miter; stroke-miterlimit: 4; fill: rgb(245,230,211); fill-rule: nonzero; opacity: 1; text-decoration-thickness: 6.306%; white-space: pre;"><tspan x="-69.99" y="18.8484">12K+</tspan></text>
</g>
		<g transform="matrix(1 0 0 1 0.9328 -11.6965)" style="">
		<text xml:space="preserve" font-family="'Hanken Grotesk', Hanken-Grotesk, 'sans serif', sans-serif" font-size="16" font-style="normal" font-weight="400" style="stroke: none; stroke-width: 1; stroke-dasharray: none; stroke-linecap: butt; stroke-dashoffset: 0; stroke-linejoin: miter; stroke-miterlimit: 4; fill: rgb(245,230,211); fill-rule: nonzero; opacity: 0.73; text-decoration-thickness: 6.306%; white-space: pre;"><tspan x="-62.344" y="5.0262">SATISFIED USERS</tspan></text>
</g>
</g>
</g>
</svg>