<svg xmlns="http://www.w3.org/2000/svg" xmlns:xlink="http://www.w3.org/1999/xlink" version="1.1" width="1280" height="820" viewbox="0 0 1280 820" xml:space="preserve">
<desc>Created with Fabric.js 6.7.1</desc>
<defs>
</defs>

<g transform="matrix(0.4151 0 0 1.4544 137.064 646.1136)">
<rect style="stroke: none; stroke-width: 1; stroke-dasharray: none; stroke-linecap: butt; stroke-dashoffset: 0; stroke-linejoin: miter; stroke-miterlimit: 4; fill: rgb(245,230,211); fill-rule: nonzero; opacity: 0;" x="-277.5" y="-53" rx="0" ry="0" width="555" height="106"></rect>
</g>
<g transform="matrix(0.7851 0 0 0.7747 239.5758 107.0956)">
<rect style="stroke: none; stroke-width: 1; stroke-dasharray: none; stroke-linecap: butt; stroke-dashoffset: 0; stroke-linejoin: miter; stroke-miterlimit: 4; fill: rgb(245,230,211); fill-rule: nonzero; opacity: 0;" x="-277.5" y="-53" rx="0" ry="0" width="555" height="106"></rect>
</g>
<g transform="matrix(0.3791 0 0 5.7983 1154.4371 431.6977)">
<rect style="stroke: none; stroke-width: 1; stroke-dasharray: none; stroke-linecap: butt; stroke-dashoffset: 0; stroke-linejoin: miter; stroke-miterlimit: 4; fill: rgb(245,230,211); fill-rule: nonzero; opacity: 0;" x="-277.5" y="-53" rx="0" ry="0" width="555" height="106"></rect>
</g>
<g transform="matrix(0.5673 0 0 0.5726 179.3756 333.3154)">
<rect style="stroke: none; stroke-width: 1; stroke-dasharray: none; stroke-linecap: butt; stroke-dashoffset: 0; stroke-linejoin: miter; stroke-miterlimit: 4; fill: rgb(245,230,211); fill-rule: nonzero; opacity: 0;" x="-277.5" y="-53" rx="0" ry="0" width="555" height="106"></rect>
</g>
<g transform="matrix(1 0 0 1 143.0477 132.4304)" style="" id="brandmark-editable-textbox-original-0">
		<text xml:space="preserve" font-family="'Hanken Grotesk', Hanken-Grotesk, 'sans serif', sans-serif" font-size="14" font-style="normal" font-weight="400" style="stroke: none; stroke-width: 1; stroke-dasharray: none; stroke-linecap: butt; stroke-dashoffset: 0; stroke-linejoin: miter; stroke-miterlimit: 4; fill: rgb(24,58,40); fill-rule: nonzero; opacity: 1; visibility: visible; text-decoration-thickness: 6.6667%; white-space: pre;"><tspan x="-121.4417" y="4.398">EVERY ADVENTURE, CINEMATIC.</tspan></text>
</g>
<g transform="matrix(1 0 0 1 113.5 333.3154)">
<rect style="stroke: none; stroke-width: 1; stroke-dasharray: none; stroke-linecap: butt; stroke-dashoffset: 0; stroke-linejoin: miter; stroke-miterlimit: 4; fill: rgb(156,120,79); fill-rule: nonzero; opacity: 1;" x="-93" y="-20" rx="12" ry="12" width="186" height="40"></rect>
</g>
<g transform="matrix(1 0 0 1 30.4999 599.3154)">
<path style="stroke: none; stroke-width: 1; stroke-dasharray: none; stroke-linecap: butt; stroke-dashoffset: 0; stroke-linejoin: miter; stroke-miterlimit: 4; fill: rgb(24,58,40); fill-rule: evenodd; opacity: 1;" transform=" translate(-10, -473)" d="M 10 481.333 C 5.3975 481.333 1.6666 477.603 1.6666 473 C 1.6666 468.398 5.3975 464.667 10 464.667 C 14.6025 464.667 18.3333 468.398 18.3333 473 C 18.3333 477.603 14.6025 481.333 10 481.333 Z M 9.0191 474.783 L 6.715 472.478 L 5.8333 473.359 L 8.4325 475.96 C 8.5887 476.116 8.8006 476.204 9.0216 476.204 C 9.2426 476.204 9.4545 476.116 9.6108 475.96 L 14.5708 471.002 L 13.6858 470.117 L 9.0191 474.783 Z" stroke-linecap="round"></path>
</g>
<g transform="matrix(1 0 0 1 30.4999 635.3154)">
<path style="stroke: none; stroke-width: 1; stroke-dasharray: none; stroke-linecap: butt; stroke-dashoffset: 0; stroke-linejoin: miter; stroke-miterlimit: 4; fill: rgb(24,58,40); fill-rule: evenodd; opacity: 1;" transform=" translate(-10, -509)" d="M 10 517.333 C 5.3975 517.333 1.6666 513.603 1.6666 509 C 1.6666 504.398 5.3975 500.667 10 500.667 C 14.6025 500.667 18.3333 504.398 18.3333 509 C 18.3333 513.603 14.6025 517.333 10 517.333 Z M 9.0191 510.783 L 6.715 508.478 L 5.8333 509.359 L 8.4325 511.96 C 8.5887 512.116 8.8006 512.204 9.0216 512.204 C 9.2426 512.204 9.4545 512.116 9.6108 511.96 L 14.5708 507.002 L 13.6858 506.117 L 9.0191 510.783 Z" stroke-linecap="round"></path>
</g>
<g transform="matrix(1 0 0 1 30.4999 671.3154)">
<path style="stroke: none; stroke-width: 1; stroke-dasharray: none; stroke-linecap: butt; stroke-dashoffset: 0; stroke-linejoin: miter; stroke-miterlimit: 4; fill: rgb(24,58,40); fill-rule: evenodd; opacity: 1;" transform=" translate(-10, -545)" d="M 10 553.333 C 5.3975 553.333 1.6666 549.603 1.6666 545 C 1.6666 540.398 5.3975 536.667 10 536.667 C 14.6025 536.667 18.3333 540.398 18.3333 545 C 18.3333 549.603 14.6025 553.333 10 553.333 Z M 9.0191 546.783 L 6.715 544.478 L 5.8333 545.359 L 8.4325 547.96 C 8.5887 548.116 8.8006 548.204 9.0216 548.204 C 9.2426 548.204 9.4545 548.116 9.6108 547.96 L 14.5708 543.002 L 13.6858 542.117 L 9.0191 546.783 Z" stroke-linecap="round"></path>
</g>
<g transform="matrix(1 0 0 1 390.1282 220.0809)" style="" id="brandmark-editable-textbox-original-1">
		<text xml:space="preserve" font-family="'Hanken Grotesk', 'Hanken Grotesk SemiBold', Hanken-Grotesk, Hanken-Grotesk-SemiBold, 'sans serif', sans-serif" font-size="64" font-style="normal" font-weight="600" style="stroke: none; stroke-width: 1; stroke-dasharray: none; stroke-linecap: butt; stroke-dashoffset: 0; stroke-linejoin: miter; stroke-miterlimit: 4; fill: rgb(24,58,40); fill-rule: nonzero; opacity: 1; visibility: visible; text-decoration-thickness: 6.6667%; white-space: pre;"><tspan x="-368.5222" y="-12.439">NEXT GENERATION</tspan><tspan x="-368.5222" y="52.649">PHOTOGRAPHY</tspan></text>
</g>
<g transform="matrix(1 0 0 1 113.5 333.3154)" style="" id="brandmark-editable-textbox-original-2">
		<text xml:space="preserve" font-family="'Hanken Grotesk', 'Hanken Grotesk SemiBold', Hanken-Grotesk, Hanken-Grotesk-SemiBold, 'sans serif', sans-serif" font-size="14" font-style="normal" font-weight="600" style="stroke: none; stroke-width: 1; stroke-dasharray: none; stroke-linecap: butt; stroke-dashoffset: 0; stroke-linejoin: miter; stroke-miterlimit: 4; fill: rgb(245,230,211); fill-rule: nonzero; opacity: 1; visibility: visible; text-decoration-thickness: 6.6667%; white-space: pre;"><tspan x="-68.138" y="4.398">Buy VizoCam X1 Now</tspan></text>
</g>
<g transform="matrix(0.4991 0 0 0.5018 1154.451 316.3154)">
	<g><use href="#img-dedup-5" xlink:href="#img-dedup-5" x="-210" y="-280" width="420" height="560" style="stroke: none; stroke-width: 0; stroke-dasharray: none; stroke-linecap: butt; stroke-dashoffset: 0; stroke-linejoin: miter; stroke-miterlimit: 4; fill: rgb(0,0,0); fill-rule: nonzero; opacity: 1;"></use></g>
</g>
<g transform="matrix(1 0 0 1 1157.454 599.1138)" style="" id="brandmark-editable-textbox-original-3">
		<text xml:space="preserve" font-family="'Hanken Grotesk', Hanken-Grotesk, 'sans serif', sans-serif" font-size="16" font-style="normal" font-weight="400" style="stroke: none; stroke-width: 1; stroke-dasharray: none; stroke-linecap: butt; stroke-dashoffset: 0; stroke-linejoin: miter; stroke-miterlimit: 4; fill: rgb(24,58,40); fill-rule: nonzero; opacity: 0.79; visibility: visible; text-decoration-thickness: 6.6667%; white-space: pre;"><tspan x="-107.3119" y="-85.3738">Meet the VizoCam X1 — the</tspan><tspan x="-107.3119" y="-62.7738">ultimate action and lifestyle</tspan><tspan x="-107.3119" y="-40.1738">camera. Built tough,</tspan><tspan x="-107.3119" y="-17.5738">waterproof, and packed</tspan><tspan x="-107.3119" y="5.0262">with next-gen stabilization,</tspan><tspan x="-107.3119" y="27.6262">it turns every moment into</tspan><tspan x="-107.3119" y="50.2262">cinematic footage you’ll</tspan><tspan x="-107.3119" y="72.8262">want to relive again and</tspan><tspan x="-107.3119" y="95.4262">again.</tspan></text>
</g>
<g transform="matrix(1 0 0 1 137.2362 599.3154)" style="" id="brandmark-editable-textbox-original-4">
		<text xml:space="preserve" font-family="'Hanken Grotesk', Hanken-Grotesk, 'sans serif', sans-serif" font-size="16" font-style="normal" font-weight="400" style="stroke: none; stroke-width: 1; stroke-dasharray: none; stroke-linecap: butt; stroke-dashoffset: 0; stroke-linejoin: miter; stroke-miterlimit: 4; fill: rgb(24,58,40); fill-rule: nonzero; opacity: 1; visibility: visible; text-decoration-thickness: 6.6667%; white-space: pre;"><tspan x="-89.3842" y="5.0262">Free Shipping</tspan></text>
</g>
<g transform="matrix(1 0 0 1 137.9147 635.3154)" style="" id="brandmark-editable-textbox-original-5">
		<text xml:space="preserve" font-family="'Hanken Grotesk', Hanken-Grotesk, 'sans serif', sans-serif" font-size="16" font-style="normal" font-weight="400" style="stroke: none; stroke-width: 1; stroke-dasharray: none; stroke-linecap: butt; stroke-dashoffset: 0; stroke-linejoin: miter; stroke-miterlimit: 4; fill: rgb(24,58,40); fill-rule: nonzero; opacity: 1; visibility: visible; text-decoration-thickness: 6.6667%; white-space: pre;"><tspan x="-90.0627" y="5.0262">Money-Back Guarantee</tspan></text>
</g>
<g transform="matrix(1 0 0 1 137.9128 672.0224)" style="" id="brandmark-editable-textbox-original-6">
		<text xml:space="preserve" font-family="'Hanken Grotesk', Hanken-Grotesk, 'sans serif', sans-serif" font-size="16" font-style="normal" font-weight="400" style="stroke: none; stroke-width: 1; stroke-dasharray: none; stroke-linecap: butt; stroke-dashoffset: 0; stroke-linejoin: miter; stroke-miterlimit: 4; fill: rgb(24,58,40); fill-rule: nonzero; opacity: 1; visibility: visible; text-decoration-thickness: 6.6667%; white-space: pre;"><tspan x="-90.0609" y="5.0262">1-Year Warranty</tspan></text>
</g>
<g transform="matrix(0.511 0 0 0.5124 635.9529 487.0111)">
	<g><use href="#img-dedup-6" xlink:href="#img-dedup-6" x="-646" y="-454" width="1292" height="908" style="stroke: none; stroke-width: 0; stroke-dasharray: none; stroke-linecap: butt; stroke-dashoffset: 0; stroke-linejoin: miter; stroke-miterlimit: 4; fill: rgb(0,0,0); fill-rule: nonzero; opacity: 1;"></use></g>
</g>







</svg>