<svg xmlns="http://www.w3.org/2000/svg" xmlns:xlink="http://www.w3.org/1999/xlink" version="1.1" width="320" height="1290.6016246535878" viewbox="0 0 320 1290.6016" xml:space="preserve">
<desc>Created with Fabric.js 6.7.1</desc>
<defs>
</defs>

<g transform="matrix(1 0 0 1 160 76.2813)" style="">
		<text xml:space="preserve" font-family="'Hanken Grotesk', Hanken-Grotesk, 'sans serif', sans-serif" font-size="14" font-style="normal" font-weight="400" style="stroke: none; stroke-width: 1; stroke-dasharray: none; stroke-linecap: butt; stroke-dashoffset: 0; stroke-linejoin: miter; stroke-miterlimit: 4; fill: rgb(24,58,40); fill-rule: nonzero; opacity: 1; text-decoration-thickness: 6.6667%; white-space: pre;"><tspan x="-140" y="4.398">EVERY ADVENTURE, CINEMATIC.</tspan></text>
</g>
<g transform="matrix(0.5 0 0 0.5 160 152.5169)" style="">
		<text xml:space="preserve" font-family="'Hanken Grotesk', 'Hanken Grotesk SemiBold', Hanken-Grotesk, Hanken-Grotesk-SemiBold, 'sans serif', sans-serif" font-size="64" font-style="normal" font-weight="600" style="stroke: none; stroke-width: 1; stroke-dasharray: none; stroke-linecap: butt; stroke-dashoffset: 0; stroke-linejoin: miter; stroke-miterlimit: 4; fill: rgb(24,58,40); fill-rule: nonzero; opacity: 1; text-decoration-thickness: 3.3334%; white-space: pre;"><tspan x="-280" y="-44.983">NEXT</tspan><tspan x="-280" y="20.105">GENERATION</tspan><tspan x="-280" y="85.193">PHOTOGRAPHY</tspan></text>
</g>
<g transform="matrix(0.883 0 0 0.883 160 240.1922)">
<g style="">
		<g transform="matrix(0.5673 0 0 0.5726 0.8331 0)">
<rect style="stroke: none; stroke-width: 1; stroke-dasharray: none; stroke-linecap: butt; stroke-dashoffset: 0; stroke-linejoin: miter; stroke-miterlimit: 4; fill: rgb(245,230,211); fill-rule: nonzero; opacity: 0;" x="-277.5" y="-53" rx="0" ry="0" width="555" height="106"></rect>
</g>
		<g transform="matrix(1 0 0 1 -65.0425 0)">
<rect style="stroke: none; stroke-width: 1; stroke-dasharray: none; stroke-linecap: butt; stroke-dashoffset: 0; stroke-linejoin: miter; stroke-miterlimit: 4; fill: rgb(156,120,79); fill-rule: nonzero; opacity: 1;" x="-93" y="-20" rx="12" ry="12" width="186" height="40"></rect>
</g>
		<g transform="matrix(1 0 0 1 -65.0425 0)" style="">
		<text xml:space="preserve" font-family="'Hanken Grotesk', 'Hanken Grotesk SemiBold', Hanken-Grotesk, Hanken-Grotesk-SemiBold, 'sans serif', sans-serif" font-size="14" font-style="normal" font-weight="600" style="stroke: none; stroke-width: 1; stroke-dasharray: none; stroke-linecap: butt; stroke-dashoffset: 0; stroke-linejoin: miter; stroke-miterlimit: 4; fill: rgb(245,230,211); fill-rule: nonzero; opacity: 1; text-decoration-thickness: 5.887%; white-space: pre;"><tspan x="-68.138" y="4.398">Buy VizoCam X1 Now</tspan></text>
</g>
</g>
</g>
<g transform="matrix(1 0 0 1 135.3978 355.0538)">
<g style="">
		<g transform="matrix(0.4151 0 0 1.4544 0 0)">
<rect style="stroke: none; stroke-width: 1; stroke-dasharray: none; stroke-linecap: butt; stroke-dashoffset: 0; stroke-linejoin: miter; stroke-miterlimit: 4; fill: rgb(245,230,211); fill-rule: nonzero; opacity: 0;" x="-277.5" y="-53" rx="0" ry="0" width="555" height="106"></rect>
</g>
		<g transform="matrix(1 0 0 1 -106.5641 -46.7982)">
<path style="stroke: none; stroke-width: 1; stroke-dasharray: none; stroke-linecap: butt; stroke-dashoffset: 0; stroke-linejoin: miter; stroke-miterlimit: 4; fill: rgb(24,58,40); fill-rule: evenodd; opacity: 1;" transform=" translate(-10, -473)" d="M 10 481.333 C 5.3975 481.333 1.6666 477.603 1.6666 473 C 1.6666 468.398 5.3975 464.667 10 464.667 C 14.6025 464.667 18.3333 468.398 18.3333 473 C 18.3333 477.603 14.6025 481.333 10 481.333 Z M 9.0191 474.783 L 6.715 472.478 L 5.8333 473.359 L 8.4325 475.96 C 8.5887 476.116 8.8006 476.204 9.0216 476.204 C 9.2426 476.204 9.4545 476.116 9.6108 475.96 L 14.5708 471.002 L 13.6858 470.117 L 9.0191 474.783 Z" stroke-linecap="round"></path>
</g>
		<g transform="matrix(1 0 0 1 -106.5641 -10.7982)">
<path style="stroke: none; stroke-width: 1; stroke-dasharray: none; stroke-linecap: butt; stroke-dashoffset: 0; stroke-linejoin: miter; stroke-miterlimit: 4; fill: rgb(24,58,40); fill-rule: evenodd; opacity: 1;" transform=" translate(-10, -509)" d="M 10 517.333 C 5.3975 517.333 1.6666 513.603 1.6666 509 C 1.6666 504.398 5.3975 500.667 10 500.667 C 14.6025 500.667 18.3333 504.398 18.3333 509 C 18.3333 513.603 14.6025 517.333 10 517.333 Z M 9.0191 510.783 L 6.715 508.478 L 5.8333 509.359 L 8.4325 511.96 C 8.5887 512.116 8.8006 512.204 9.0216 512.204 C 9.2426 512.204 9.4545 512.116 9.6108 511.96 L 14.5708 507.002 L 13.6858 506.117 L 9.0191 510.783 Z" stroke-linecap="round"></path>
</g>
		<g transform="matrix(1 0 0 1 -106.5641 25.2018)">
<path style="stroke: none; stroke-width: 1; stroke-dasharray: none; stroke-linecap: butt; stroke-dashoffset: 0; stroke-linejoin: miter; stroke-miterlimit: 4; fill: rgb(24,58,40); fill-rule: evenodd; opacity: 1;" transform=" translate(-10, -545)" d="M 10 553.333 C 5.3975 553.333 1.6666 549.603 1.6666 545 C 1.6666 540.398 5.3975 536.667 10 536.667 C 14.6025 536.667 18.3333 540.398 18.3333 545 C 18.3333 549.603 14.6025 553.333 10 553.333 Z M 9.0191 546.783 L 6.715 544.478 L 5.8333 545.359 L 8.4325 547.96 C 8.5887 548.116 8.8006 548.204 9.0216 548.204 C 9.2426 548.204 9.4545 548.116 9.6108 547.96 L 14.5708 543.002 L 13.6858 542.117 L 9.0191 546.783 Z" stroke-linecap="round"></path>
</g>
		<g transform="matrix(1 0 0 1 0.1722 -46.7982)" style="">
		<text xml:space="preserve" font-family="'Hanken Grotesk', Hanken-Grotesk, 'sans serif', sans-serif" font-size="16" font-style="normal" font-weight="400" style="stroke: none; stroke-width: 1; stroke-dasharray: none; stroke-linecap: butt; stroke-dashoffset: 0; stroke-linejoin: miter; stroke-miterlimit: 4; fill: rgb(24,58,40); fill-rule: nonzero; opacity: 1; text-decoration-thickness: 6.6667%; white-space: pre;"><tspan x="-89.3842" y="5.0262">Free Shipping</tspan></text>
</g>
		<g transform="matrix(1 0 0 1 0.8507 -10.7982)" style="">
		<text xml:space="preserve" font-family="'Hanken Grotesk', Hanken-Grotesk, 'sans serif', sans-serif" font-size="16" font-style="normal" font-weight="400" style="stroke: none; stroke-width: 1; stroke-dasharray: none; stroke-linecap: butt; stroke-dashoffset: 0; stroke-linejoin: miter; stroke-miterlimit: 4; fill: rgb(24,58,40); fill-rule: nonzero; opacity: 1; text-decoration-thickness: 6.6667%; white-space: pre;"><tspan x="-90.0627" y="5.0262">Money-Back Guarantee</tspan></text>
</g>
		<g transform="matrix(1 0 0 1 0.8488 25.9088)" style="">
		<text xml:space="preserve" font-family="'Hanken Grotesk', Hanken-Grotesk, 'sans serif', sans-serif" font-size="16" font-style="normal" font-weight="400" style="stroke: none; stroke-width: 1; stroke-dasharray: none; stroke-linecap: butt; stroke-dashoffset: 0; stroke-linejoin: miter; stroke-miterlimit: 4; fill: rgb(24,58,40); fill-rule: nonzero; opacity: 1; text-decoration-thickness: 6.6667%; white-space: pre;"><tspan x="-90.0609" y="5.0262">1-Year Warranty</tspan></text>
</g>
</g>
</g>
<g transform="matrix(0.4241 0 0 0.4241 160 541.5239)">
<g style="">
		<g transform="matrix(0.511 0 0 0.5124 0 0)">
	<g><use href="#img-dedup-6" xlink:href="#img-dedup-6" x="-646" y="-454" width="1292" height="908" style="stroke: none; stroke-width: 0; stroke-dasharray: none; stroke-linecap: butt; stroke-dashoffset: 0; stroke-linejoin: miter; stroke-miterlimit: 4; fill: rgb(0,0,0); fill-rule: nonzero; opacity: 1;"></use></g>
</g>
</g>
</g>
<g transform="matrix(1 0 0 1 128.1093 960.3926)">
<g style="">
		<g transform="matrix(0.3791 0 0 5.7983 -2.7195 0)">
<rect style="stroke: none; stroke-width: 1; stroke-dasharray: none; stroke-linecap: butt; stroke-dashoffset: 0; stroke-linejoin: miter; stroke-miterlimit: 4; fill: rgb(245,230,211); fill-rule: nonzero; opacity: 0;" x="-277.5" y="-53" rx="0" ry="0" width="555" height="106"></rect>
</g>
		<g transform="matrix(0.4991 0 0 0.5018 -2.7056 -115.3823)">
	<g><use href="#img-dedup-5" xlink:href="#img-dedup-5" x="-210" y="-280" width="420" height="560" style="stroke: none; stroke-width: 0; stroke-dasharray: none; stroke-linecap: butt; stroke-dashoffset: 0; stroke-linejoin: miter; stroke-miterlimit: 4; fill: rgb(0,0,0); fill-rule: nonzero; opacity: 1;"></use></g>
</g>
		<g transform="matrix(1 0 0 1 0.2974 156.1161)" style="">
		<text xml:space="preserve" font-family="'Hanken Grotesk', Hanken-Grotesk, 'sans serif', sans-serif" font-size="16" font-style="normal" font-weight="400" style="stroke: none; stroke-width: 1; stroke-dasharray: none; stroke-linecap: butt; stroke-dashoffset: 0; stroke-linejoin: miter; stroke-miterlimit: 4; fill: rgb(24,58,40); fill-rule: nonzero; opacity: 0.79; text-decoration-thickness: 6.6667%; white-space: pre;"><tspan x="-107.3119" y="-74.0738">Meet the VizoCam X1 — the</tspan><tspan x="-107.3119" y="-51.4738">ultimate action and lifestyle</tspan><tspan x="-107.3119" y="-28.8738">camera. Built tough,</tspan><tspan x="-107.3119" y="-6.2738">waterproof, and packed with</tspan><tspan x="-107.3119" y="16.3262">next-gen stabilization, it turns</tspan><tspan x="-107.3119" y="38.9262">every moment into cinematic</tspan><tspan x="-107.3119" y="61.5262">footage you’ll want to relive</tspan><tspan x="-107.3119" y="84.1262">again and again.</tspan></text>
</g>
</g>
</g>
</svg>