<svg xmlns="http://www.w3.org/2000/svg" xmlns:xlink="http://www.w3.org/1999/xlink" version="1.1" width="1280" height="800" viewbox="0 0 1280 800" xml:space="preserve">
<desc>Created with Fabric.js 6.7.1</desc>
<defs>
</defs>

<g transform="matrix(0.7212 0 0 4.7261 1059.3744 471.5663)">
<rect style="stroke: none; stroke-width: 1; stroke-dasharray: none; stroke-linecap: butt; stroke-dashoffset: 0; stroke-linejoin: miter; stroke-miterlimit: 4; fill: rgb(245,230,211); fill-rule: nonzero; opacity: 0;" x="-277.5" y="-53" rx="0" ry="0" width="555" height="106"></rect>
</g>
<g transform="matrix(1.0407 0 0 0.5863 638.0507 154.4423)">
<rect style="stroke: none; stroke-width: 1; stroke-dasharray: none; stroke-linecap: butt; stroke-dashoffset: 0; stroke-linejoin: miter; stroke-miterlimit: 4; fill: rgb(245,230,211); fill-rule: nonzero; opacity: 0;" x="-277.5" y="-53" rx="0" ry="0" width="555" height="106"></rect>
</g>
<g transform="matrix(1 0 0 1.1554 630.838 41.375)">
<rect style="stroke: none; stroke-width: 1; stroke-dasharray: none; stroke-linecap: butt; stroke-dashoffset: 0; stroke-linejoin: miter; stroke-miterlimit: 4; fill: rgb(245,230,211); fill-rule: nonzero; opacity: 0;" x="-277.5" y="-53" rx="0" ry="0" width="555" height="106"></rect>
</g>
<g transform="matrix(1 0 0 1 640.5 59.7457)" style="" id="brandmark-editable-textbox-original-0">
		<text xml:space="preserve" font-family="'Hanken Grotesk', 'Hanken Grotesk SemiBold', Hanken-Grotesk, Hanken-Grotesk-SemiBold, 'sans serif', sans-serif" font-size="40" font-style="normal" font-weight="600" style="stroke: none; stroke-width: 1; stroke-dasharray: none; stroke-linecap: butt; stroke-dashoffset: 0; stroke-linejoin: miter; stroke-miterlimit: 4; fill: rgb(24,58,40); fill-rule: nonzero; opacity: 1; visibility: visible; text-decoration-thickness: 6.6667%; white-space: pre;"><tspan x="-101.68" y="-7.7744">WHAT OUR</tspan><tspan x="-156.96" y="32.9056">CUSTOMERS SAY</tspan></text>
</g>
<g transform="matrix(1 0 0 1 640.5 143.1016)" style="" id="brandmark-editable-textbox-original-1">
		<text xml:space="preserve" font-family="'Hanken Grotesk', Hanken-Grotesk, 'sans serif', sans-serif" font-size="16" font-style="normal" font-weight="400" style="stroke: none; stroke-width: 1; stroke-dasharray: none; stroke-linecap: butt; stroke-dashoffset: 0; stroke-linejoin: miter; stroke-miterlimit: 4; fill: rgb(24,58,40); fill-rule: nonzero; opacity: 0.69; visibility: visible; text-decoration-thickness: 6.6667%; white-space: pre;"><tspan x="-258.456" y="-5.4602">Thousands of creators and adventurers trust the VizoCam X1 to capture</tspan><tspan x="-245.8" y="15.5126">their most unforgettable moments. Here’s what real users are saying:</tspan></text>
</g>
<g transform="matrix(1 0 0 1 220.5 433.22)">
<rect style="stroke: none; stroke-width: 1; stroke-dasharray: none; stroke-linecap: butt; stroke-dashoffset: 0; stroke-linejoin: miter; stroke-miterlimit: 4; fill: rgb(24,58,40); fill-rule: nonzero; opacity: 0.03;" x="-200" y="-214" rx="24" ry="24" width="400" height="428"></rect>
</g>
<g transform="matrix(1 0 0 1 220.5 598.22)">
<rect style="stroke: none; stroke-width: 1; stroke-dasharray: none; stroke-linecap: butt; stroke-dashoffset: 0; stroke-linejoin: miter; stroke-miterlimit: 4; fill: rgb(245,230,211); fill-rule: nonzero; opacity: 1;" x="-184" y="-32" rx="16" ry="16" width="368" height="64"></rect>
</g>
<g transform="matrix(1 0 0 1 64.5 270.72)">
<path style="stroke: none; stroke-width: 1; stroke-dasharray: none; stroke-linecap: butt; stroke-dashoffset: 0; stroke-linejoin: miter; stroke-miterlimit: 4; fill: rgb(156,120,79); fill-rule: nonzero; opacity: 1;" transform=" translate(-44, -245.5)" d="M 37.825 255 L 39.45 247.975 L 34 243.25 L 41.2 242.625 L 44 236 L 46.8 242.625 L 54 243.25 L 48.55 247.975 L 50.175 255 L 44 251.275 L 37.825 255 Z" stroke-linecap="round"></path>
</g>
<g transform="matrix(1 0 0 1 88.5 270.72)">
<path style="stroke: none; stroke-width: 1; stroke-dasharray: none; stroke-linecap: butt; stroke-dashoffset: 0; stroke-linejoin: miter; stroke-miterlimit: 4; fill: rgb(156,120,79); fill-rule: nonzero; opacity: 1;" transform=" translate(-68, -245.5)" d="M 61.825 255 L 63.45 247.975 L 58 243.25 L 65.2 242.625 L 68 236 L 70.8 242.625 L 78 243.25 L 72.55 247.975 L 74.175 255 L 68 251.275 L 61.825 255 Z" stroke-linecap="round"></path>
</g>
<g transform="matrix(1 0 0 1 112.5 270.72)">
<path style="stroke: none; stroke-width: 1; stroke-dasharray: none; stroke-linecap: butt; stroke-dashoffset: 0; stroke-linejoin: miter; stroke-miterlimit: 4; fill: rgb(156,120,79); fill-rule: nonzero; opacity: 1;" transform=" translate(-92, -245.5)" d="M 85.825 255 L 87.45 247.975 L 82 243.25 L 89.2 242.625 L 92 236 L 94.8 242.625 L 102 243.25 L 96.55 247.975 L 98.175 255 L 92 251.275 L 85.825 255 Z" stroke-linecap="round"></path>
</g>
<g transform="matrix(1 0 0 1 136.5 270.72)">
<path style="stroke: none; stroke-width: 1; stroke-dasharray: none; stroke-linecap: butt; stroke-dashoffset: 0; stroke-linejoin: miter; stroke-miterlimit: 4; fill: rgb(156,120,79); fill-rule: nonzero; opacity: 1;" transform=" translate(-116, -245.5)" d="M 109.825 255 L 111.45 247.975 L 106 243.25 L 113.2 242.625 L 116 236 L 118.8 242.625 L 126 243.25 L 120.55 247.975 L 122.175 255 L 116 251.275 L 109.825 255 Z" stroke-linecap="round"></path>
</g>
<g transform="matrix(1 0 0 1 160.5 270.72)">
<path style="stroke: none; stroke-width: 1; stroke-dasharray: none; stroke-linecap: butt; stroke-dashoffset: 0; stroke-linejoin: miter; stroke-miterlimit: 4; fill: rgb(156,120,79); fill-rule: nonzero; opacity: 1;" transform=" translate(-140, -245.5)" d="M 133.825 255 L 135.45 247.975 L 130 243.25 L 137.2 242.625 L 140 236 L 142.8 242.625 L 150 243.25 L 144.55 247.975 L 146.175 255 L 140 251.275 L 133.825 255 Z" stroke-linecap="round"></path>
</g>
<g transform="matrix(1 0 0 1 228.6072 425.1912)" style="" id="brandmark-editable-textbox-original-2">
		<text xml:space="preserve" font-family="'Hanken Grotesk', 'Hanken Grotesk Medium', Hanken-Grotesk, Hanken-Grotesk-Medium, 'sans serif', sans-serif" font-size="24" font-style="italic" font-weight="500" style="stroke: none; stroke-width: 1; stroke-dasharray: none; stroke-linecap: butt; stroke-dashoffset: 0; stroke-linejoin: miter; stroke-miterlimit: 4; fill: rgb(24,58,40); fill-rule: nonzero; opacity: 1; visibility: visible; text-decoration-thickness: 6.6667%; white-space: pre;"><tspan x="-175.8913" y="-60.2606">“The video quality blew me</tspan><tspan x="-175.8913" y="-26.3606">away. I’ve used it while hiking</tspan><tspan x="-175.8913" y="7.5394">and biking — the stabilization</tspan><tspan x="-175.8913" y="41.4394">makes everything look like a pro</tspan><tspan x="-175.8913" y="75.3394">film. Best camera I’ve owned!”</tspan></text>
</g>
<g transform="matrix(1 0 0 1 95.599 598.22)" style="" id="brandmark-editable-textbox-original-3">
		<text xml:space="preserve" font-family="'Hanken Grotesk', 'Hanken Grotesk SemiBold', Hanken-Grotesk, Hanken-Grotesk-SemiBold, 'sans serif', sans-serif" font-size="20" font-style="normal" font-weight="600" style="stroke: none; stroke-width: 1; stroke-dasharray: none; stroke-linecap: butt; stroke-dashoffset: 0; stroke-linejoin: miter; stroke-miterlimit: 4; fill: rgb(24,58,40); fill-rule: nonzero; opacity: 1; visibility: visible; text-decoration-thickness: 6.6667%; white-space: pre;"><tspan x="-42.883" y="6.2828">Emily R.</tspan></text>
</g>
<g transform="matrix(1 0 0 1 320.2113 599.222)" style="" id="brandmark-editable-textbox-original-4">
		<text xml:space="preserve" font-family="'Hanken Grotesk', Hanken-Grotesk, 'sans serif', sans-serif" font-size="16" font-style="normal" font-weight="400" style="stroke: none; stroke-width: 1; stroke-dasharray: none; stroke-linecap: butt; stroke-dashoffset: 0; stroke-linejoin: miter; stroke-miterlimit: 4; fill: rgb(24,58,40); fill-rule: nonzero; opacity: 1; visibility: visible; text-decoration-thickness: 6.6667%; white-space: pre;"><tspan x="-37.8369" y="5.0262">Travel Blogger</tspan></text>
</g>
<g transform="matrix(1 0 0 1 640.5 433.22)">
<rect style="stroke: none; stroke-width: 1; stroke-dasharray: none; stroke-linecap: butt; stroke-dashoffset: 0; stroke-linejoin: miter; stroke-miterlimit: 4; fill: rgb(24,58,40); fill-rule: nonzero; opacity: 0.03;" x="-200" y="-214" rx="24" ry="24" width="400" height="428"></rect>
</g>
<g transform="matrix(1 0 0 1 640.5 598.22)">
<rect style="stroke: none; stroke-width: 1; stroke-dasharray: none; stroke-linecap: butt; stroke-dashoffset: 0; stroke-linejoin: miter; stroke-miterlimit: 4; fill: rgb(245,230,211); fill-rule: nonzero; opacity: 1;" x="-184" y="-32" rx="16" ry="16" width="368" height="64"></rect>
</g>
<g transform="matrix(1 0 0 1 484.5 270.72)">
<path style="stroke: none; stroke-width: 1; stroke-dasharray: none; stroke-linecap: butt; stroke-dashoffset: 0; stroke-linejoin: miter; stroke-miterlimit: 4; fill: rgb(156,120,79); fill-rule: nonzero; opacity: 1;" transform=" translate(-44, -245.5)" d="M 37.825 255 L 39.45 247.975 L 34 243.25 L 41.2 242.625 L 44 236 L 46.8 242.625 L 54 243.25 L 48.55 247.975 L 50.175 255 L 44 251.275 L 37.825 255 Z" stroke-linecap="round"></path>
</g>
<g transform="matrix(1 0 0 1 508.5 270.72)">
<path style="stroke: none; stroke-width: 1; stroke-dasharray: none; stroke-linecap: butt; stroke-dashoffset: 0; stroke-linejoin: miter; stroke-miterlimit: 4; fill: rgb(156,120,79); fill-rule: nonzero; opacity: 1;" transform=" translate(-68, -245.5)" d="M 61.825 255 L 63.45 247.975 L 58 243.25 L 65.2 242.625 L 68 236 L 70.8 242.625 L 78 243.25 L 72.55 247.975 L 74.175 255 L 68 251.275 L 61.825 255 Z" stroke-linecap="round"></path>
</g>
<g transform="matrix(1 0 0 1 532.5 270.72)">
<path style="stroke: none; stroke-width: 1; stroke-dasharray: none; stroke-linecap: butt; stroke-dashoffset: 0; stroke-linejoin: miter; stroke-miterlimit: 4; fill: rgb(156,120,79); fill-rule: nonzero; opacity: 1;" transform=" translate(-92, -245.5)" d="M 85.825 255 L 87.45 247.975 L 82 243.25 L 89.2 242.625 L 92 236 L 94.8 242.625 L 102 243.25 L 96.55 247.975 L 98.175 255 L 92 251.275 L 85.825 255 Z" stroke-linecap="round"></path>
</g>
<g transform="matrix(1 0 0 1 556.5 270.72)">
<path style="stroke: none; stroke-width: 1; stroke-dasharray: none; stroke-linecap: butt; stroke-dashoffset: 0; stroke-linejoin: miter; stroke-miterlimit: 4; fill: rgb(156,120,79); fill-rule: nonzero; opacity: 1;" transform=" translate(-116, -245.5)" d="M 109.825 255 L 111.45 247.975 L 106 243.25 L 113.2 242.625 L 116 236 L 118.8 242.625 L 126 243.25 L 120.55 247.975 L 122.175 255 L 116 251.275 L 109.825 255 Z" stroke-linecap="round"></path>
</g>
<g transform="matrix(1 0 0 1 580.5 270.72)">
<path style="stroke: none; stroke-width: 1; stroke-dasharray: none; stroke-linecap: butt; stroke-dashoffset: 0; stroke-linejoin: miter; stroke-miterlimit: 4; fill: rgb(156,120,79); fill-rule: nonzero; opacity: 1;" transform=" translate(-140, -245.5)" d="M 133.825 255 L 135.45 247.975 L 130 243.25 L 137.2 242.625 L 140 236 L 142.8 242.625 L 150 243.25 L 144.55 247.975 L 146.175 255 L 140 251.275 L 133.825 255 Z" stroke-linecap="round"></path>
</g>
<g transform="matrix(1 0 0 1 630.838 425.1912)" style="" id="brandmark-editable-textbox-original-5">
		<text xml:space="preserve" font-family="'Hanken Grotesk', 'Hanken Grotesk Medium', Hanken-Grotesk, Hanken-Grotesk-Medium, 'sans serif', sans-serif" font-size="24" font-style="italic" font-weight="500" style="stroke: none; stroke-width: 1; stroke-dasharray: none; stroke-linecap: butt; stroke-dashoffset: 0; stroke-linejoin: miter; stroke-miterlimit: 4; fill: rgb(24,58,40); fill-rule: nonzero; opacity: 1; visibility: visible; text-decoration-thickness: 6.6667%; white-space: pre;"><tspan x="-162.0239" y="-77.2106">“Battery life is insane! I</tspan><tspan x="-162.0239" y="-43.3106">recorded an entire day at the</tspan><tspan x="-162.0239" y="-9.4106">beach and still had power</tspan><tspan x="-162.0239" y="24.4894">left. Plus, sharing clips</tspan><tspan x="-162.0239" y="58.3894">straight to my phone is</tspan><tspan x="-162.0239" y="92.2894">effortless.”</tspan></text>
</g>
<g transform="matrix(1 0 0 1 515.599 598.22)" style="" id="brandmark-editable-textbox-original-6">
		<text xml:space="preserve" font-family="'Hanken Grotesk', 'Hanken Grotesk SemiBold', Hanken-Grotesk, Hanken-Grotesk-SemiBold, 'sans serif', sans-serif" font-size="20" font-style="normal" font-weight="600" style="stroke: none; stroke-width: 1; stroke-dasharray: none; stroke-linecap: butt; stroke-dashoffset: 0; stroke-linejoin: miter; stroke-miterlimit: 4; fill: rgb(24,58,40); fill-rule: nonzero; opacity: 1; visibility: visible; text-decoration-thickness: 6.6667%; white-space: pre;"><tspan x="-42.883" y="6.2828">Mark D.</tspan></text>
</g>
<g transform="matrix(1 0 0 1 718.0251 599.2567)" style="" id="brandmark-editable-textbox-original-7">
		<text xml:space="preserve" font-family="'Hanken Grotesk', Hanken-Grotesk, 'sans serif', sans-serif" font-size="16" font-style="normal" font-weight="400" style="stroke: none; stroke-width: 1; stroke-dasharray: none; stroke-linecap: butt; stroke-dashoffset: 0; stroke-linejoin: miter; stroke-miterlimit: 4; fill: rgb(24,58,40); fill-rule: nonzero; opacity: 1; visibility: visible; text-decoration-thickness: 6.6667%; white-space: pre;"><tspan x="-65.537" y="5.0262">Adventure Enthusiast</tspan></text>
</g>
<g transform="matrix(1 0 0 1 1059.3808 433.22)">
<rect style="stroke: none; stroke-width: 1; stroke-dasharray: none; stroke-linecap: butt; stroke-dashoffset: 0; stroke-linejoin: miter; stroke-miterlimit: 4; fill: rgb(24,58,40); fill-rule: nonzero; opacity: 0.03;" x="-200" y="-214" rx="24" ry="24" width="400" height="428"></rect>
</g>
<g transform="matrix(1 0 0 1 1059.3808 598.22)">
<rect style="stroke: none; stroke-width: 1; stroke-dasharray: none; stroke-linecap: butt; stroke-dashoffset: 0; stroke-linejoin: miter; stroke-miterlimit: 4; fill: rgb(245,230,211); fill-rule: nonzero; opacity: 1;" x="-184" y="-32" rx="16" ry="16" width="368" height="64"></rect>
</g>
<g transform="matrix(1 0 0 1 903.3808 270.72)">
<path style="stroke: none; stroke-width: 1; stroke-dasharray: none; stroke-linecap: butt; stroke-dashoffset: 0; stroke-linejoin: miter; stroke-miterlimit: 4; fill: rgb(156,120,79); fill-rule: nonzero; opacity: 1;" transform=" translate(-44, -245.5)" d="M 37.825 255 L 39.45 247.975 L 34 243.25 L 41.2 242.625 L 44 236 L 46.8 242.625 L 54 243.25 L 48.55 247.975 L 50.175 255 L 44 251.275 L 37.825 255 Z" stroke-linecap="round"></path>
</g>
<g transform="matrix(1 0 0 1 927.3808 270.72)">
<path style="stroke: none; stroke-width: 1; stroke-dasharray: none; stroke-linecap: butt; stroke-dashoffset: 0; stroke-linejoin: miter; stroke-miterlimit: 4; fill: rgb(156,120,79); fill-rule: nonzero; opacity: 1;" transform=" translate(-68, -245.5)" d="M 61.825 255 L 63.45 247.975 L 58 243.25 L 65.2 242.625 L 68 236 L 70.8 242.625 L 78 243.25 L 72.55 247.975 L 74.175 255 L 68 251.275 L 61.825 255 Z" stroke-linecap="round"></path>
</g>
<g transform="matrix(1 0 0 1 951.3808 270.72)">
<path style="stroke: none; stroke-width: 1; stroke-dasharray: none; stroke-linecap: butt; stroke-dashoffset: 0; stroke-linejoin: miter; stroke-miterlimit: 4; fill: rgb(156,120,79); fill-rule: nonzero; opacity: 1;" transform=" translate(-92, -245.5)" d="M 85.825 255 L 87.45 247.975 L 82 243.25 L 89.2 242.625 L 92 236 L 94.8 242.625 L 102 243.25 L 96.55 247.975 L 98.175 255 L 92 251.275 L 85.825 255 Z" stroke-linecap="round"></path>
</g>
<g transform="matrix(1 0 0 1 975.3808 270.72)">
<path style="stroke: none; stroke-width: 1; stroke-dasharray: none; stroke-linecap: butt; stroke-dashoffset: 0; stroke-linejoin: miter; stroke-miterlimit: 4; fill: rgb(156,120,79); fill-rule: nonzero; opacity: 1;" transform=" translate(-116, -245.5)" d="M 109.825 255 L 111.45 247.975 L 106 243.25 L 113.2 242.625 L 116 236 L 118.8 242.625 L 126 243.25 L 120.55 247.975 L 122.175 255 L 116 251.275 L 109.825 255 Z" stroke-linecap="round"></path>
</g>
<g transform="matrix(1 0 0 1 999.3808 270.72)">
<path style="stroke: none; stroke-width: 1; stroke-dasharray: none; stroke-linecap: butt; stroke-dashoffset: 0; stroke-linejoin: miter; stroke-miterlimit: 4; fill: rgb(156,120,79); fill-rule: nonzero; opacity: 1;" transform=" translate(-140, -245.5)" d="M 133.825 255 L 135.45 247.975 L 130 243.25 L 137.2 242.625 L 140 236 L 142.8 242.625 L 150 243.25 L 144.55 247.975 L 146.175 255 L 140 251.275 L 133.825 255 Z" stroke-linecap="round"></path>
</g>
<g transform="matrix(1 0 0 1 1057.6014 408.2412)" style="" id="brandmark-editable-textbox-original-8">
		<text xml:space="preserve" font-family="'Hanken Grotesk', 'Hanken Grotesk Medium', Hanken-Grotesk, Hanken-Grotesk-Medium, 'sans serif', sans-serif" font-size="24" font-style="italic" font-weight="500" style="stroke: none; stroke-width: 1; stroke-dasharray: none; stroke-linecap: butt; stroke-dashoffset: 0; stroke-linejoin: miter; stroke-miterlimit: 4; fill: rgb(24,58,40); fill-rule: nonzero; opacity: 1; visibility: visible; text-decoration-thickness: 6.6667%; white-space: pre;"><tspan x="-166.0058" y="-60.2606">“Lightweight, durable, and</tspan><tspan x="-166.0058" y="-26.3606">waterproof. I don’t worry</tspan><tspan x="-166.0058" y="7.5394">about my gear anymore — I</tspan><tspan x="-166.0058" y="41.4394">just focus on the adventure.</tspan><tspan x="-166.0058" y="75.3394">Totally worth it!”</tspan></text>
</g>
<g transform="matrix(1 0 0 1 940.2077 598.22)" style="" id="brandmark-editable-textbox-original-9">
		<text xml:space="preserve" font-family="'Hanken Grotesk', 'Hanken Grotesk SemiBold', Hanken-Grotesk, Hanken-Grotesk-SemiBold, 'sans serif', sans-serif" font-size="20" font-style="normal" font-weight="600" style="stroke: none; stroke-width: 1; stroke-dasharray: none; stroke-linecap: butt; stroke-dashoffset: 0; stroke-linejoin: miter; stroke-miterlimit: 4; fill: rgb(24,58,40); fill-rule: nonzero; opacity: 1; visibility: visible; text-decoration-thickness: 6.6667%; white-space: pre;"><tspan x="-48.611" y="6.2828">Sophia L.</tspan></text>
</g>
<g transform="matrix(1 0 0 1 1159.0921 599.222)" style="" id="brandmark-editable-textbox-original-10">
		<text xml:space="preserve" font-family="'Hanken Grotesk', Hanken-Grotesk, 'sans serif', sans-serif" font-size="16" font-style="normal" font-weight="400" style="stroke: none; stroke-width: 1; stroke-dasharray: none; stroke-linecap: butt; stroke-dashoffset: 0; stroke-linejoin: miter; stroke-miterlimit: 4; fill: rgb(24,58,40); fill-rule: nonzero; opacity: 1; visibility: visible; text-decoration-thickness: 6.6667%; white-space: pre;"><tspan x="-52.9249" y="5.0262">Content Creator</tspan></text>
</g>











</svg>